<svg xmlns="http://www.w3.org/2000/svg" version="1.1" width="512" height="512">
<path d="M0 0 C0.82332825 -0.0065712 1.64665649 -0.0131424 2.49493408 -0.01991272 C5.21716409 -0.03960622 7.93933895 -0.0513013 10.66162109 -0.0612793 C12.06059694 -0.06739259 12.06059694 -0.06739259 13.48783493 -0.07362938 C18.42710904 -0.09447617 23.3663555 -0.10878229 28.30566406 -0.11816406 C33.38963133 -0.12920824 38.47315849 -0.16358915 43.5569706 -0.20333576 C47.48111749 -0.22957311 51.40516079 -0.23786234 55.32938766 -0.24144554 C57.20234515 -0.24629536 59.07529851 -0.2578632 60.94816971 -0.27648354 C75.10905496 -0.40848992 84.92127997 0.55007609 95.60693359 10.73168945 C101.11383689 16.84396155 103.94390279 23.10394539 103.92358398 31.31274414 C103.92350845 32.33350037 103.92343292 33.35425659 103.9233551 34.40594482 C103.91819382 35.50086243 103.91303253 36.59578003 103.90771484 37.72387695 C103.90559242 39.4133847 103.90559242 39.4133847 103.90342712 41.13702393 C103.89783059 44.73371031 103.88527869 48.33033439 103.87255859 51.92700195 C103.86754315 54.36580314 103.86298032 56.8046053 103.85888672 59.2434082 C103.84786229 65.22129403 103.83112758 71.19914354 103.81005859 77.17700195 C105.47470154 77.16367828 105.47470154 77.16367828 107.17297363 77.15008545 C117.64831915 77.06888232 128.12360052 77.00898022 138.59918976 76.96975327 C143.98439181 76.94890805 149.36933909 76.92064623 154.75439453 76.87524414 C159.95450839 76.83167734 165.1543777 76.80784179 170.35466003 76.79749298 C172.33534086 76.79012107 174.3160088 76.77572544 176.29658508 76.75408173 C179.07805967 76.72490377 181.8585329 76.72105196 184.64013672 76.72290039 C185.45294098 76.70851929 186.26574524 76.69413818 187.10317993 76.67932129 C193.3433637 76.72398342 198.66837459 78.27771197 203.34015656 82.58904648 C207.5709913 87.38787185 209.05661415 91.70854901 209.07748413 98.01678467 C209.09027908 99.76983665 209.09027908 99.76983665 209.10333252 101.55830383 C209.10242615 102.83207382 209.10151978 104.10584381 209.10058594 105.41821289 C209.10657425 106.78051623 209.1133805 108.14281618 209.12094116 109.50511169 C209.13859373 113.20213834 209.14329668 116.89907233 209.14457273 120.59613705 C209.14599717 122.91313315 209.15027267 125.23010595 209.15556717 127.54709625 C209.17407643 135.65209944 209.18223809 143.75703693 209.18066406 151.86206055 C209.17946766 159.37878415 209.20046857 166.89521829 209.23215139 174.41186881 C209.25846994 180.8903269 209.26902464 187.36869152 209.26775324 193.84720254 C209.26724745 197.70483585 209.27271318 201.56221279 209.29410934 205.41979218 C209.40130618 226.19923418 209.28208874 246.28607077 198.26416016 264.77050781 C196.42503766 269.07898267 196.33435113 272.66107779 196.29833984 277.29418945 C196.27141304 278.57992355 196.27141304 278.57992355 196.24394226 279.89163208 C196.19004455 282.61170631 196.15601002 285.33160715 196.12255859 288.05200195 C196.08936733 289.90358847 196.05487601 291.75515217 196.01904297 293.60668945 C195.93433007 298.13000143 195.86742139 302.65326382 195.81005859 307.17700195 C196.82841797 307.1612915 197.84677734 307.14558105 198.89599609 307.12939453 C202.70532192 307.07474091 206.51461368 307.04052421 210.32421875 307.01220703 C211.96718186 306.99720059 213.61010545 306.97678884 215.25292969 306.95068359 C217.62623902 306.91393837 219.99901485 306.89719423 222.37255859 306.8840332 C223.09685059 306.86854935 223.82114258 306.85306549 224.56738281 306.83711243 C230.67693448 306.83513508 236.13572619 308.07574078 241.05224609 311.9387207 C241.59107422 312.57422852 242.12990234 313.20973633 242.68505859 313.86450195 C243.23935547 314.48711914 243.79365234 315.10973633 244.36474609 315.7512207 C248.13600601 322.08082181 248.10416248 329.15605703 248.0847168 336.30566406 C248.09238319 337.77802773 248.09238319 337.77802773 248.10020447 339.28013611 C248.1140344 342.50493573 248.11314878 345.72952006 248.11083984 348.9543457 C248.11473013 351.20821715 248.11906549 353.46208786 248.12382507 355.71595764 C248.13127291 360.43240743 248.13100621 365.14878235 248.12573242 369.86523438 C248.11993699 375.89523258 248.13687782 381.92492372 248.1600771 387.95487118 C248.17484087 392.60728229 248.17568257 397.25961986 248.17256737 401.91205025 C248.17307915 404.13469616 248.17829001 406.35734634 248.18837929 408.57996941 C248.20077875 411.69316192 248.19393093 414.80576159 248.18237305 417.91894531 C248.19001678 418.8277948 248.19766052 419.73664429 248.20553589 420.67303467 C248.1465601 427.89589672 247.14348812 434.42475174 242.37255859 440.05200195 C236.21486245 445.15838412 232.46067294 446.32691389 224.42333984 446.2746582 C223.60633102 446.27324326 222.7893222 446.27182831 221.94755554 446.27037048 C219.33918592 446.2647749 216.73090226 446.25222324 214.12255859 446.23950195 C212.35367963 446.23448638 210.58479931 446.22992357 208.81591797 446.22583008 C204.48059841 446.21480691 200.14534307 446.19754533 195.81005859 446.17700195 C195.81440918 446.77987534 195.81875977 447.38274872 195.82324219 448.00389099 C195.82662598 448.80279251 195.83000977 449.60169403 195.83349609 450.42480469 C195.83784668 451.21330307 195.84219727 452.00180145 195.84667969 452.81419373 C195.5940276 469.1154114 189.46132809 484.47895095 178.02099609 496.1340332 C161.91371216 511.01761889 143.60265183 512.63237837 122.66821289 512.58105469 C120.55434816 512.58676645 118.4404865 512.59373382 116.32662964 512.60185242 C110.61778461 512.61971109 104.90909391 512.61862902 99.20022941 512.61291003 C94.41930258 512.60980718 89.63840492 512.6159229 84.85748225 512.62194878 C73.57024641 512.63596888 62.2830863 512.63445406 50.99584961 512.62304688 C39.38569652 512.61157198 27.77577461 512.62563667 16.16565198 512.65244335 C6.16605534 512.67465951 -3.83346904 512.6812243 -13.83308858 512.67536694 C-19.79147995 512.67200985 -25.74972323 512.67432893 -31.70809364 512.69161797 C-37.31515322 512.70717922 -42.92187264 512.70303031 -48.52891922 512.68431282 C-50.57499442 512.68065204 -52.62109534 512.68366116 -54.66714668 512.69419861 C-75.63374335 512.79385242 -94.22330406 509.68717771 -109.97509766 494.5480957 C-122.77304755 480.8472922 -126.41480106 464.46331561 -126.18994141 446.17700195 C-127.27936035 446.1927124 -128.3687793 446.20842285 -129.49121094 446.22460938 C-133.55021715 446.27909173 -137.60919131 446.31341834 -141.66845703 446.34179688 C-143.42209314 446.35684191 -145.17569188 446.37728299 -146.92919922 446.40332031 C-149.4563115 446.43989316 -151.98292437 446.45677116 -154.51025391 446.4699707 C-155.67779709 446.49319649 -155.67779709 446.49319649 -156.868927 446.51689148 C-163.10044735 446.5187988 -167.12185541 445.00461283 -171.87744141 440.80200195 C-178.13613606 433.69753775 -178.34006692 427.46428229 -178.35107422 418.38891602 C-178.35603912 417.40777832 -178.36100403 416.42664063 -178.36611938 415.41577148 C-178.38070619 412.17471613 -178.3875374 408.93370972 -178.39306641 405.69262695 C-178.39882094 403.43446858 -178.40457863 401.17631021 -178.41033936 398.91815186 C-178.42083959 394.18379489 -178.42668859 389.44945486 -178.43017578 384.71508789 C-178.43565691 378.66148304 -178.45968114 372.6081035 -178.48814774 366.55456924 C-178.50681164 361.88929601 -178.51198173 357.22407664 -178.51351166 352.55876923 C-178.51653047 350.32774372 -178.52453284 348.09671899 -178.53769684 345.86573029 C-178.55483477 342.73786997 -178.55285799 339.61055479 -178.54638672 336.48266602 C-178.5556015 335.56910339 -178.56481628 334.65554077 -178.5743103 333.71429443 C-178.52778048 326.50074134 -177.3577649 319.65466798 -172.87744141 313.80200195 C-168.1991478 309.23250588 -164.09712196 307.83521088 -157.71646118 307.83711243 C-156.91622528 307.85259628 -156.11598938 307.86808014 -155.29150391 307.8840332 C-154.45654388 307.88827805 -153.62158386 307.89252289 -152.76132202 307.89689636 C-150.11219106 307.91359863 -147.46383981 307.9512342 -144.81494141 307.98950195 C-143.01156703 308.00455976 -141.20818065 308.01824624 -139.40478516 308.03051758 C-134.9995399 308.06347433 -130.59487255 308.11519726 -126.18994141 308.17700195 C-126.15951976 302.73576364 -126.17591909 297.29722995 -126.23266602 291.85620117 C-126.24567253 290.01184588 -126.24666409 288.16735987 -126.23461914 286.32299805 C-126.16166292 273.53133994 -127.70886093 265.23135322 -134.18994141 254.17700195 C-135.21142853 251.65228999 -135.88336887 249.26263009 -136.56494141 246.61450195 C-136.86142578 245.49946289 -137.15791016 244.38442383 -137.46337891 243.2355957 C-138.60277398 238.43911 -139.31694394 234.10298731 -139.33711243 229.15603638 C-139.34426773 227.94764099 -139.35142303 226.73924561 -139.35879517 225.49423218 C-139.36148407 224.17669952 -139.36417297 222.85916687 -139.36694336 221.50170898 C-139.37321301 220.09362624 -139.37986025 218.68554514 -139.38685608 217.27746582 C-139.40783277 212.66326028 -139.41824995 208.04905464 -139.42822266 203.43481445 C-139.43227209 201.84353493 -139.43638907 200.25225558 -139.44057274 198.66097641 C-139.45960746 191.18641261 -139.47384415 183.7118586 -139.48218471 176.23727524 C-139.49196212 167.61844243 -139.51830182 158.9998661 -139.5586856 150.38112366 C-139.58886035 143.71175201 -139.60365472 137.04245386 -139.60696572 130.37301528 C-139.60931391 126.39272718 -139.61824461 122.41271363 -139.6434269 118.43249893 C-139.66673785 114.68789785 -139.67092901 110.94375157 -139.66066551 107.19909668 C-139.65993564 105.17630108 -139.67900362 103.1535284 -139.69873047 101.13082886 C-139.65358285 93.23736171 -139.02708331 88.46557232 -133.66259766 82.4699707 C-127.51981487 77.65443738 -122.91926334 76.8839584 -115.3605957 76.94995117 C-114.48204422 76.94965912 -113.60349274 76.94936707 -112.69831848 76.94906616 C-109.80349748 76.950456 -106.90893602 76.966001 -104.01416016 76.98168945 C-102.00348552 76.98542081 -99.99280906 76.9882672 -97.98213196 76.99026489 C-92.69671587 76.99789168 -87.41141016 77.01753203 -82.1260376 77.03967285 C-76.73003634 77.0601518 -71.33401722 77.069271 -65.93798828 77.0793457 C-55.35525757 77.10077877 -44.77260867 77.13490326 -34.18994141 77.17700195 C-34.19882385 76.56027618 -34.2077063 75.94355042 -34.21685791 75.30813599 C-34.30580362 68.85110809 -34.36587057 62.3942561 -34.40966797 55.93676758 C-34.42970174 53.53142215 -34.45693663 51.12612492 -34.49169922 48.72094727 C-34.54057949 45.25044817 -34.56299346 41.78059669 -34.58056641 38.30981445 C-34.60121155 37.24586456 -34.62185669 36.18191467 -34.64312744 35.08572388 C-34.64640602 24.01362688 -31.23972459 16.36105659 -23.63525391 8.38012695 C-16.34132437 1.80859939 -9.60706188 0.03337218 0 0 Z M-10.12744141 24.30200195 C-19.11649799 36.83220205 -14.18994141 65.50242443 -14.18994141 74.17700195 C18.15005859 74.17700195 50.49005859 74.17700195 83.81005859 74.17700195 C86.27333689 51.16731324 86.27333689 51.16731324 79.74755859 24.30200195 C72.10006905 18.76977547 61.82928904 19.88146878 52.81005859 19.91137695 C51.36474543 19.91002649 49.91943272 19.9080828 48.47412109 19.90557861 C45.4584517 19.90264526 42.44290153 19.90686693 39.42724609 19.91625977 C35.58437609 19.92765328 31.74178557 19.92108415 27.89892578 19.90911484 C24.91843606 19.90184762 21.93801133 19.90420635 18.95751953 19.90937042 C17.54150356 19.91069351 16.12548146 19.90910686 14.70947266 19.90441132 C1.63576634 19.51059122 1.63576634 19.51059122 -10.12744141 24.30200195 Z M84.81005859 97.17700195 C84.81005859 158.55700195 84.81005859 219.93700195 84.81005859 283.17700195 C132.01841109 286.16246806 132.01841109 286.16246806 171.52490234 266.58325195 C186.28821353 251.03761146 188.98798676 231.11441104 188.92358398 210.58886719 C188.92373001 209.35860306 188.92387604 208.12833893 188.92402649 206.86079407 C188.92345247 203.51430162 188.91846474 200.16787218 188.91145253 196.82139087 C188.90516745 193.31403972 188.90461114 189.80668758 188.90342712 186.29933167 C188.90032893 179.66975433 188.89213606 173.04019364 188.88207763 166.41062361 C188.86976823 158.11595605 188.86432195 149.82128575 188.85888672 141.52661133 C188.84916966 126.74339526 188.82913371 111.96021548 188.81005859 97.17700195 C154.49005859 97.17700195 120.17005859 97.17700195 84.81005859 97.17700195 Z M-119.18994141 98.17700195 C-119.25011512 120.86585485 -119.25011512 120.86585485 -119.29044914 143.55471897 C-119.30149106 151.67517527 -119.31546385 159.79559005 -119.34082031 167.91601562 C-119.36090043 174.34981445 -119.3736921 180.78358181 -119.3781184 187.2174111 C-119.38070132 190.61674594 -119.38667056 194.01599085 -119.40140152 197.41529655 C-119.90305872 234.23949713 -119.90305872 234.23949713 -102.81494141 265.86450195 C-101.51556641 267.00918945 -101.51556641 267.00918945 -100.18994141 268.17700195 C-99.56732422 268.73000977 -98.94470703 269.28301758 -98.30322266 269.8527832 C-75.73384679 288.77540175 -41.86838962 284.17700195 -15.18994141 284.17700195 C-15.18994141 222.79700195 -15.18994141 161.41700195 -15.18994141 98.17700195 C-49.50994141 98.17700195 -83.82994141 98.17700195 -119.18994141 98.17700195 Z M5.81005859 98.17700195 C5.81005859 188.92700195 5.81005859 279.67700195 5.81005859 373.17700195 C24.95005859 373.17700195 44.09005859 373.17700195 63.81005859 373.17700195 C63.81005859 282.42700195 63.81005859 191.67700195 63.81005859 98.17700195 C44.67005859 98.17700195 25.53005859 98.17700195 5.81005859 98.17700195 Z M-105.18994141 290.17700195 C-105.26014013 311.61344139 -105.31298272 333.04986176 -105.34537792 354.48639297 C-105.36082191 364.44059348 -105.38186407 374.3947224 -105.41625977 384.34887695 C-105.44623787 393.02874163 -105.46553434 401.70855445 -105.47220689 410.38846946 C-105.47610493 414.98095101 -105.48521405 419.57328424 -105.50713158 424.16571808 C-105.52762985 428.49622352 -105.53374849 432.8265208 -105.52926445 437.15707016 C-105.53008372 438.7387976 -105.53596943 440.32053266 -105.54755783 441.90221786 C-105.64092535 455.31383225 -104.74636176 469.07154914 -95.14697266 479.3684082 C-80.89902128 492.6844798 -62.90035244 492.63200131 -44.40405273 492.54931641 C-42.47206934 492.55175066 -40.54008722 492.55547609 -38.60810852 492.56037903 C-33.40993312 492.56970305 -28.21194881 492.56043572 -23.01378846 492.5470469 C-17.54798534 492.5356431 -12.0821904 492.53984664 -6.61637878 492.54179382 C2.55501386 492.54267377 11.72633217 492.5316574 20.89770508 492.51318359 C31.47352802 492.49200167 42.04924233 492.48851197 52.62508219 492.49474555 C62.8392804 492.50045573 73.0534407 492.4947753 83.26763344 492.48357201 C87.59703593 492.47894983 91.92641505 492.47804176 96.25581932 492.48015785 C101.35887997 492.48205258 106.46183129 492.47384645 111.56486702 492.45809746 C113.42836937 492.45388465 115.29188288 492.4529836 117.15538788 492.45578766 C134.48382633 492.47789172 151.31007006 492.45372055 164.54443359 479.80200195 C174.59254694 468.16004994 175.1083256 454.6055199 175.03710938 440.00878906 C175.03654447 438.38186653 175.03686337 436.75494348 175.03799438 435.12802124 C175.0385658 430.73402099 175.02684585 426.340131 175.01284647 421.94615626 C175.00030374 417.34574751 174.99916582 412.74533594 174.99679565 408.14491272 C174.99059127 399.44348503 174.97419459 390.74210788 174.95409667 382.0407024 C174.93170519 372.1301694 174.92073608 362.21963393 174.9107058 352.30908191 C174.88982741 331.93169377 174.85467176 311.55435105 174.81005859 291.17700195 C172.12138097 292.23897858 169.48133072 293.32919078 166.85693359 294.54418945 C148.29921033 303.03148943 130.90076071 303.8129097 110.74755859 303.92700195 C108.22345011 303.95521878 105.69936022 303.98515396 103.17529297 304.0168457 C97.05362125 304.09002362 90.93206187 304.14206182 84.81005859 304.17700195 C84.80419235 305.17845245 84.79832611 306.17990295 84.7922821 307.21170044 C84.7350243 316.65775301 84.66224664 326.10357605 84.57434368 335.54939461 C84.52965062 340.40539001 84.49039209 345.26130172 84.46362305 350.11743164 C84.43757953 354.80546038 84.39716958 359.49316688 84.34687233 364.18099594 C84.33021073 365.96787375 84.31869205 367.75480729 84.31244469 369.54175186 C84.30279586 372.04827765 84.27472784 374.55398036 84.24243164 377.06030273 C84.24386673 377.7961409 84.24530182 378.53197906 84.2467804 379.29011536 C84.16172426 383.96953497 83.25512384 387.18864659 80.81005859 391.17700195 C77.40598745 393.82461284 72.9655047 393.68441108 68.81005859 394.17700195 C68.79792831 395.19391365 68.79792831 395.19391365 68.78555298 396.23136902 C68.69948898 403.288063 68.59998411 410.34447667 68.49267578 417.40087891 C68.45439515 420.03429456 68.4195407 422.66776234 68.38818359 425.30126953 C68.34251389 429.08685942 68.28452133 432.87209073 68.22412109 436.6574707 C68.21256989 437.83472214 68.20101868 439.01197357 68.18911743 440.22489929 C68.16924774 441.32566299 68.14937805 442.4264267 68.12890625 443.56054688 C68.11558258 444.52651291 68.10225891 445.49247894 68.08853149 446.48771667 C67.67990797 450.4339004 66.85789417 453.13180771 64.01829529 455.96424866 C61.32197324 457.44505615 59.54750185 457.56332531 56.47827148 457.58105469 C54.88125145 457.60008095 54.88125145 457.60008095 53.25196838 457.61949158 C52.10711472 457.61655594 50.96226105 457.6136203 49.78271484 457.6105957 C48.01111244 457.61845848 48.01111244 457.61845848 46.20372009 457.6264801 C43.70637803 457.63290266 41.20900573 457.63156034 38.71166992 457.62304688 C34.89040232 457.61454167 31.07063144 457.64329028 27.24951172 457.67504883 C24.82307988 457.67666102 22.39664538 457.67608296 19.97021484 457.6730957 C18.82738541 457.68432968 17.68455597 457.69556366 16.50709534 457.70713806 C8.63771588 457.63800523 8.63771588 457.63800523 4.61254883 455.39599609 C1.6438321 451.7412939 1.6786542 448.27809983 1.60473633 443.67407227 C1.5748185 442.02281342 1.5748185 442.02281342 1.54429626 440.3381958 C1.52758377 439.15578308 1.51087128 437.97337036 1.49365234 436.75512695 C1.47287125 435.54000427 1.45209015 434.32488159 1.43067932 433.07293701 C1.36529031 429.19101622 1.30634808 425.30902775 1.24755859 421.42700195 C1.20436327 418.79548453 1.16074865 416.16397396 1.11669922 413.5324707 C1.00961976 407.08071935 0.90783345 400.62890066 0.81005859 394.17700195 C0.05080078 394.0790332 -0.70845703 393.98106445 -1.49072266 393.88012695 C-2.48458984 393.7305957 -3.47845703 393.58106445 -4.50244141 393.42700195 C-5.48857422 393.2877832 -6.47470703 393.14856445 -7.49072266 393.00512695 C-10.71159998 392.0169562 -11.54020005 391.0600451 -13.18994141 388.17700195 C-14.40119573 384.54323899 -14.36608533 381.18602182 -14.39526367 377.40087891 C-14.40516327 376.61040161 -14.41506287 375.81992432 -14.42526245 375.00549316 C-14.45685533 372.39212033 -14.48162615 369.77872932 -14.50634766 367.1652832 C-14.52691909 365.35352607 -14.54791562 363.54177372 -14.56932068 361.73002625 C-14.62452176 356.96088532 -14.67393972 352.19170121 -14.72216797 347.42248535 C-14.77239731 342.55611324 -14.8280759 337.68980385 -14.88330078 332.82348633 C-14.99085835 323.27471178 -15.09230868 313.72588278 -15.18994141 304.17700195 C-15.80809219 304.17113571 -16.42624298 304.16526947 -17.06312561 304.15922546 C-23.5699548 304.09466848 -30.07631746 304.01009908 -36.58276367 303.91455078 C-39.00229695 303.88155202 -41.42190259 303.85344453 -43.84155273 303.83056641 C-75.30545406 303.52509164 -75.30545406 303.52509164 -90.12744141 297.23950195 C-91.29146484 296.75610352 -92.45548828 296.27270508 -93.65478516 295.7746582 C-96.27577958 294.59014249 -98.84322558 293.36819578 -101.41088867 292.07714844 C-102.12148941 291.72031479 -102.83209015 291.36348114 -103.56422424 290.99583435 C-104.10071091 290.72561966 -104.63719757 290.45540497 -105.18994141 290.17700195 Z M-157.18994141 328.17700195 C-157.18994141 360.18700195 -157.18994141 392.19700195 -157.18994141 425.17700195 C-146.95994141 425.17700195 -136.72994141 425.17700195 -126.18994141 425.17700195 C-126.18994141 393.16700195 -126.18994141 361.15700195 -126.18994141 328.17700195 C-136.41994141 328.17700195 -146.64994141 328.17700195 -157.18994141 328.17700195 Z M195.81005859 328.17700195 C195.81005859 360.18700195 195.81005859 392.19700195 195.81005859 425.17700195 C206.04005859 425.17700195 216.27005859 425.17700195 226.81005859 425.17700195 C226.81005859 393.16700195 226.81005859 361.15700195 226.81005859 328.17700195 C216.58005859 328.17700195 206.35005859 328.17700195 195.81005859 328.17700195 Z M21.81005859 394.17700195 C21.81005859 408.36700195 21.81005859 422.55700195 21.81005859 437.17700195 C30.39005859 437.17700195 38.97005859 437.17700195 47.81005859 437.17700195 C47.81005859 422.98700195 47.81005859 408.79700195 47.81005859 394.17700195 C39.23005859 394.17700195 30.65005859 394.17700195 21.81005859 394.17700195 Z " fill="#000000" transform="translate(221.18994140625,-0.177001953125)"/>
</svg>