<svg xmlns="http://www.w3.org/2000/svg" version="1.1" width="512" height="512">
<path d="M0 0 C0.84573043 -0.00521549 1.69146086 -0.01043099 2.56281948 -0.01580453 C3.96444883 -0.00911236 3.96444883 -0.00911236 5.39439392 -0.002285 C6.38291131 -0.00540498 7.3714287 -0.00852497 8.38990116 -0.01173949 C11.72340814 -0.01975743 15.05673499 -0.01338109 18.39024353 -0.00710678 C20.77150073 -0.00981496 23.15275708 -0.01337491 25.53401184 -0.0177269 C31.34308132 -0.02592255 37.15209294 -0.02469166 42.96116424 -0.01890162 C47.68078393 -0.01439153 52.40038914 -0.01376938 57.12001038 -0.01594925 C57.79079937 -0.01625572 58.46158836 -0.01656218 59.1527043 -0.01687793 C60.51524377 -0.01751736 61.87778324 -0.01816579 63.24032271 -0.01882312 C76.02781227 -0.02453119 88.81527319 -0.01796105 101.60275805 -0.00722238 C112.58369204 0.00171356 123.56458374 0.00016166 134.54551697 -0.00905991 C147.28611034 -0.01975413 160.02667858 -0.02398182 172.76727581 -0.01783538 C174.12490526 -0.01719826 175.48253472 -0.01656951 176.84016418 -0.01594925 C177.84222911 -0.01548642 177.84222911 -0.01548642 178.86453778 -0.01501425 C183.58047942 -0.01328476 188.29640518 -0.01620786 193.01234436 -0.02090836 C199.35536232 -0.0266669 205.6983001 -0.02271235 212.04130936 -0.01111984 C214.37545259 -0.00846525 216.70960252 -0.00925186 219.04374313 -0.01364517 C222.21784814 -0.01907063 225.39169247 -0.01230313 228.56578064 -0.002285 C229.5002002 -0.00674645 230.43461977 -0.01120789 231.39735508 -0.01580453 C232.66595072 -0.00798129 232.66595072 -0.00798129 233.96017456 0 C235.06011702 0.00048706 235.06011702 0.00048706 236.18228054 0.00098395 C237.98008728 0.25168228 237.98008728 0.25168228 239.98008728 2.25168228 C240.24078369 4.79452896 240.24078369 4.79452896 240.25474548 8.04660416 C240.2642775 9.26126358 240.27380951 10.475923 240.28363037 11.72739029 C240.28226326 13.70394608 240.28226326 13.70394608 240.28086853 15.72043228 C240.28475392 17.08041897 240.28908826 18.44040445 240.29385376 19.80038834 C240.30132039 22.65186877 240.3010213 25.5032254 240.29576111 28.35470963 C240.2899619 32.01360502 240.30690553 35.67199496 240.33010578 39.33080673 C240.3448175 42.1394689 240.34571844 44.94800856 240.34259605 47.75670242 C240.34336099 49.763149 240.35725366 51.76957655 240.37127686 53.77597427 C240.36504807 54.9906337 240.35881927 56.20529312 240.35240173 57.45676041 C240.35303116 58.52994522 240.35366058 59.60313004 240.35430908 60.7088356 C240.23081589 61.54797501 240.10732269 62.38711441 239.98008728 63.25168228 C236.89120206 65.31093909 236.27072801 65.49071968 232.79258728 65.37668228 C231.53446228 65.33543228 230.27633728 65.29418228 228.98008728 65.25168228 C228.98377445 65.85429193 228.98746162 66.45690159 228.99126053 67.07777214 C229.07965521 81.75067805 229.14581809 96.42356822 229.18733597 111.09667778 C229.2079482 118.19255138 229.23604287 125.28824709 229.28184509 132.3840065 C229.32602046 139.23100217 229.34922113 146.07781282 229.35959625 152.92494202 C229.36699064 155.53805196 229.38142996 158.15115172 229.40300751 160.76418304 C229.43201705 164.42251118 229.43604412 168.08007416 229.43418884 171.73849869 C229.44856995 172.82031418 229.46295105 173.90212967 229.47776794 175.01672745 C229.44537013 180.91526533 229.17280284 184.73055715 224.98008728 189.25168228 C220.241159 193.09774445 216.49203654 193.82822967 210.55430603 193.75961685 C209.72036819 193.76585681 208.88643036 193.77209678 208.02722168 193.77852583 C205.24038697 193.79444621 202.45442807 193.78185545 199.66758728 193.76926041 C197.66660554 193.77468195 195.66562779 193.78180479 193.66465759 193.79050064 C188.23493154 193.808733 182.80550956 193.80166671 177.3757782 193.7889843 C171.69309165 193.77885625 166.01043111 193.78824944 160.32774353 193.79452896 C150.78472724 193.80180592 141.24183477 193.79221634 131.69883728 193.77316666 C120.6663114 193.7513979 109.63408121 193.75844923 98.6015625 193.78047228 C89.12878895 193.79862484 79.65610441 193.80118528 70.18331909 193.7907176 C64.52584486 193.78448191 58.86850961 193.78364921 53.21104431 193.79686356 C47.89217794 193.80841925 42.57369275 193.80040118 37.25486755 193.77728653 C35.3029697 193.77199798 33.35103975 193.7735157 31.39915466 193.78233719 C28.73429306 193.79327045 26.07065237 193.77955617 23.40586853 193.75961685 C22.63368484 193.76853974 21.86150116 193.77746263 21.06591797 193.7866559 C14.66762146 193.69381352 11.3215034 191.27896181 6.63346863 187.21989822 C4.03256172 182.55064672 4.45694715 178.0157881 4.52598572 172.7602272 C4.52540161 171.59882217 4.5248175 170.43741714 4.5242157 169.24081802 C4.52700105 165.40429105 4.55811628 161.5685422 4.58946228 157.73215103 C4.59692306 155.0712744 4.60281352 152.41044081 4.60661316 149.74956131 C4.61903398 143.46325971 4.65184315 137.17723713 4.69201112 130.89105827 C4.73675692 123.73271412 4.75872287 116.57435649 4.77879286 109.41590726 C4.82057679 94.69435638 4.89091127 79.9730242 4.98008728 65.25168228 C4.35360291 65.27488541 3.72711853 65.29808853 3.08164978 65.32199478 C2.26438416 65.34004166 1.44711853 65.35808853 0.60508728 65.37668228 C-0.20702209 65.39988541 -1.01913147 65.42308853 -1.85585022 65.44699478 C-4.01991272 65.25168228 -4.01991272 65.25168228 -6.01991272 63.25168228 C-6.27388 60.7088356 -6.27388 60.7088356 -6.27870178 57.45676041 C-6.2850061 56.24210098 -6.29131042 55.02744156 -6.29780579 53.77597427 C-6.29375732 52.45827042 -6.28970886 51.14056656 -6.28553772 49.78293228 C-6.28688448 48.42294622 -6.28882511 47.06296063 -6.29133606 45.70297623 C-6.29428681 42.85148921 -6.28999136 40.00012741 -6.28065491 37.14865494 C-6.26926026 33.48985451 -6.27582001 29.83134749 -6.28779984 26.17255783 C-6.29501984 23.36390336 -6.29272989 20.55531869 -6.28754425 17.74666214 C-6.28555733 15.74023626 -6.29164135 13.73380769 -6.29780579 11.72739029 C-6.29150146 10.51273087 -6.28519714 9.29807144 -6.27870178 8.04660416 C-6.2771106 6.97341934 -6.27551941 5.90023453 -6.27388 4.79452896 C-5.84161076 0.46643444 -3.90560472 0.00172941 0 0 Z M3.98008728 11.25168228 C3.98008728 25.44168228 3.98008728 39.63168228 3.98008728 54.25168228 C12.16240349 54.54096851 12.16240349 54.54096851 20.34507751 54.81979752 C21.35771667 54.85790543 22.37035583 54.89601334 23.41368103 54.93527603 C24.4558075 54.97193375 25.49793396 55.00859146 26.57164001 55.04636002 C28.98008728 55.25168228 28.98008728 55.25168228 29.98008728 56.25168228 C30.10508728 59.75168228 30.10508728 59.75168228 29.98008728 63.25168228 C28.10183837 65.1299312 24.94073452 64.64270626 22.41758728 64.81418228 C21.22004822 64.89797134 20.02250916 64.98176041 18.78868103 65.06808853 C17.86184509 65.12867447 16.93500916 65.18926041 15.98008728 65.25168228 C15.93340887 80.2112617 15.89811888 95.17083549 15.87646294 110.13047218 C15.86614136 117.07617372 15.85206427 124.02183006 15.82920837 130.96750259 C15.80717849 137.66534042 15.79553188 144.3631215 15.79033279 151.06099701 C15.78662578 153.62156922 15.77938736 156.18213875 15.76862717 158.74269104 C15.75419532 162.31784843 15.75210585 165.89280924 15.7530365 169.46799088 C15.74584595 170.53613525 15.7386554 171.60427963 15.73124695 172.70479202 C15.73399628 173.67516907 15.73674561 174.64554611 15.73957825 175.64532852 C15.73773466 176.49153448 15.73589108 177.33774044 15.73399162 178.209589 C15.79408457 180.47729626 15.79408457 180.47729626 17.98008728 182.25168228 C20.59624354 182.449249 23.10663461 182.52094946 25.72398376 182.50564957 C26.53282485 182.50876955 27.34166594 182.51188953 28.17501736 182.51510406 C30.90047816 182.523117 33.62571835 182.51674766 36.35118103 182.51047134 C38.29894644 182.51317975 40.24671083 182.51673982 42.19447327 182.52109146 C47.49599833 182.53023569 52.79744584 182.52666285 58.09897232 182.52033329 C63.63673874 182.5152838 69.17449834 182.51996181 74.71226501 182.52310562 C84.01346534 182.52674834 93.31463395 182.52193816 102.61582947 182.51242447 C113.38243495 182.50153934 124.1489647 182.5050647 134.91556835 182.51607728 C144.14529413 182.52514146 153.37499705 182.5264397 162.60472584 182.52119994 C168.12348485 182.51807545 173.64220822 182.517684 179.16096497 182.52427292 C184.34833715 182.53003313 189.53561132 182.52607387 194.72297287 182.51448441 C196.63140067 182.5118307 198.53983667 182.51261493 200.44826126 182.51700974 C203.0443507 182.52243874 205.64012188 182.51566351 208.2361908 182.50564957 C209.38101756 182.51234173 209.38101756 182.51234173 210.54897213 182.51916909 C214.72104379 182.62535589 214.72104379 182.62535589 217.98008728 180.25168228 C218.27806375 178.12809185 218.27806375 178.12809185 218.22059631 175.64532852 C218.22334564 174.67495148 218.22609497 173.70457443 218.22892761 172.70479202 C218.22173706 171.63664764 218.21454651 170.56850327 218.20713806 169.46799088 C218.20743011 168.34603821 218.20772217 167.22408554 218.20802307 166.06813431 C218.20662543 162.34538517 218.19104372 158.62283412 218.17539978 154.90011978 C218.1716712 152.32465092 218.1688235 149.74918065 218.16682434 147.17370987 C218.15995824 141.07865075 218.14418207 134.98367385 218.12412536 128.88864577 C218.0995982 121.27008833 218.08863441 113.65151933 218.07774353 106.03293228 C218.0582509 92.43912651 218.01818885 78.84547692 217.98008728 65.25168228 C197.85008728 65.25168228 177.72008728 65.25168228 156.98008728 65.25168228 C156.7304911 84.48837175 156.7304911 84.48837175 156.50205994 103.72531509 C156.46685787 106.13515716 156.43093705 108.54498889 156.39414978 110.95480728 C156.37710999 112.8349855 156.37710999 112.8349855 156.35972595 114.75314713 C156.33966492 115.95052505 156.31960388 117.14790298 156.29893494 118.38156509 C156.28561127 119.42081131 156.2722876 120.46005753 156.25856018 121.53079605 C155.97981891 124.25430444 155.37734541 125.92339732 153.98008728 128.25168228 C151.47227478 128.72433853 151.47227478 128.72433853 147.98008728 128.25168228 C145.02298011 126.05358143 142.60185125 123.38806524 140.10508728 120.68918228 C138.75612322 119.26874132 137.40456618 117.85075825 136.05039978 116.43527603 C135.3836322 115.73587906 134.71686462 115.03648209 134.02989197 114.31589127 C131.40215435 111.66968812 128.62793599 109.23463215 125.78623962 106.82199478 C123.0401457 104.43447435 120.52040488 101.85550782 117.98008728 99.25168228 C115.1420506 100.55116375 113.00048276 101.95154685 110.73008728 104.08761978 C110.12745056 104.65198746 109.52481384 105.21635513 108.90391541 105.79782486 C108.26905212 106.40134781 107.63418884 107.00487076 106.98008728 107.62668228 C106.31944275 108.24502945 105.65879822 108.86337662 104.97813416 109.50046158 C101.76100818 112.53064436 98.61110804 115.59936983 95.57383728 118.81027603 C95.04918884 119.35957779 94.52454041 119.90887955 93.98399353 120.47482681 C93.0087808 121.50544936 92.04682331 122.54884265 91.10118103 123.60666275 C88.53800889 126.31275228 86.91673426 127.26785327 83.26133728 128.20090103 C82.17852478 128.21765884 81.09571228 128.23441666 79.98008728 128.25168228 C77.29427038 125.56586539 77.70761902 124.1817535 77.66123962 120.42502213 C77.64136993 119.20390732 77.62150024 117.98279251 77.60102844 116.72467422 C77.5891512 115.38732459 77.57748839 114.04997303 77.56602478 112.71261978 C77.54731979 111.34783116 77.52774688 109.98305418 77.50733948 108.61828995 C77.45594123 105.02461985 77.41635701 101.43091223 77.37919617 97.83707047 C77.33920449 94.17049188 77.28809018 90.50407043 77.23789978 86.83761978 C77.14104955 79.64241496 77.05667421 72.44713433 76.98008728 65.25168228 C75.95536316 65.22662613 74.93063904 65.20156998 73.87486267 65.17575455 C70.08599052 65.08183745 66.29730847 64.98157911 62.50865173 64.87936783 C60.86644425 64.83595931 59.22418989 64.7942887 57.58189392 64.75436783 C55.22619983 64.69680788 52.870743 64.63307337 50.51524353 64.56808853 C49.77669632 64.55137604 49.03814911 64.53466354 48.27722168 64.51744461 C43.09395899 64.36555399 43.09395899 64.36555399 41.98008728 63.25168228 C41.85508728 59.75168228 41.85508728 59.75168228 41.98008728 56.25168228 C43.960338 54.27143156 47.80104252 54.99661814 50.51524353 54.93527603 C51.18261536 54.91662491 51.84998718 54.89797379 52.5375824 54.87875748 C55.03911145 54.81027488 57.5408661 54.75024441 60.04258728 54.68918228 C65.63196228 54.54480728 71.22133728 54.40043228 76.98008728 54.25168228 C76.98008728 40.06168228 76.98008728 25.87168228 76.98008728 11.25168228 C52.89008728 11.25168228 28.80008728 11.25168228 3.98008728 11.25168228 Z M87.98008728 11.25168228 C87.98008728 25.44168228 87.98008728 39.63168228 87.98008728 54.25168228 C107.12008728 54.25168228 126.26008728 54.25168228 145.98008728 54.25168228 C145.98008728 40.06168228 145.98008728 25.87168228 145.98008728 11.25168228 C126.84008728 11.25168228 107.70008728 11.25168228 87.98008728 11.25168228 Z M156.98008728 11.25168228 C156.98008728 25.44168228 156.98008728 39.63168228 156.98008728 54.25168228 C180.74008728 54.25168228 204.50008728 54.25168228 228.98008728 54.25168228 C228.98008728 40.06168228 228.98008728 25.87168228 228.98008728 11.25168228 C205.22008728 11.25168228 181.46008728 11.25168228 156.98008728 11.25168228 Z M87.98008728 65.25168228 C87.98008728 80.10168228 87.98008728 94.95168228 87.98008728 110.25168228 C93.73619827 105.32786768 93.73619827 105.32786768 99.31211853 100.23605728 C100.04752869 99.54254166 100.78293884 98.84902603 101.54063416 98.13449478 C102.28377869 97.43066666 103.02692322 96.72683853 103.79258728 96.00168228 C104.55506775 95.28238541 105.31754822 94.56308853 106.10313416 93.82199478 C110.0779253 90.07430487 110.0779253 90.07430487 113.98008728 86.25168228 C116.58164978 85.62277603 116.58164978 85.62277603 119.98008728 86.25168228 C123.09564629 88.62770515 125.69215536 91.44987205 128.35508728 94.31418228 C129.797865 95.82832041 131.24316348 97.34006074 132.69102478 98.84933853 C133.3958197 99.58555435 134.10061462 100.32177017 134.82676697 101.08029556 C138.04081594 104.32131048 141.39308936 107.42506442 144.98008728 110.25168228 C145.31008728 110.25168228 145.64008728 110.25168228 145.98008728 110.25168228 C145.98008728 95.40168228 145.98008728 80.55168228 145.98008728 65.25168228 C126.84008728 65.25168228 107.70008728 65.25168228 87.98008728 65.25168228 Z " fill="#000000" transform="translate(12.019912719726563,189.74831771850586)"/>
<path d="M0 0 C3.58354408 0.06869965 7.16718264 0.06881527 10.75128317 0.07748175 C16.74445311 0.10119426 22.73574291 0.1682425 28.72812033 0.26745367 C37.18593521 0.40739086 45.64292945 0.46517803 54.10171294 0.50825477 C60.68710209 0.54477118 67.27232216 0.60356057 73.85751486 0.66540289 C74.56198201 0.67174576 75.26644916 0.67808864 75.99226379 0.68462372 C80.64314917 0.72790723 85.29341615 0.79149354 89.94394064 0.86510992 C91.1209252 0.87677191 92.29790976 0.8884339 93.51056051 0.90044928 C94.57824667 0.92054052 95.64593283 0.94063177 96.74597311 0.96133184 C98.14224023 0.9819452 98.14224023 0.9819452 99.56671476 1.00297499 C101.78720236 1.28259039 101.78720236 1.28259039 103.78720236 3.28259039 C104.09970236 6.78259039 104.09970236 6.78259039 103.78720236 10.28259039 C100.05041806 12.77377992 98.04268416 12.48911299 93.59970236 12.40759039 C92.32739767 12.38954351 91.05509298 12.37149664 89.74423361 12.35290289 C88.7684133 12.32969976 87.79259298 12.30649664 86.78720236 12.28259039 C86.83360861 12.99802008 86.88001486 13.71344976 86.92782736 14.45055914 C87.31034874 25.01088163 85.44374423 35.23478125 78.47860861 43.50915289 C70.84056566 51.5176321 63.1220568 56.60013922 51.87704611 57.52087164 C40.81135344 57.7814022 31.39649095 55.61203151 22.82235861 48.32946539 C15.88976465 41.35695247 10.95893174 33.49111266 10.68344259 23.53136969 C10.6904326 22.18147684 10.70299646 20.83160272 10.72079611 19.48180914 C10.72798666 18.44123358 10.72798666 18.44123358 10.73532248 17.37963629 C10.74775639 15.68057848 10.76680979 13.98157132 10.78720236 12.28259039 C-12.29349837 11.07724255 -27.6270806 12.6327304 -47.04629374 26.1468482 C-52.53745456 29.85052399 -58.32247707 33.02951166 -64.08779764 36.28259039 C-66.14918094 37.46750642 -68.20913763 38.65490863 -70.26748514 39.84509039 C-71.239116 40.40454351 -72.21074686 40.96399664 -73.21182108 41.54040289 C-75.3363343 42.77376819 -77.45348895 44.01984943 -79.5653367 45.27477789 C-80.64782694 45.91673101 -81.73031717 46.55868414 -82.84561014 47.22009039 C-83.82674784 47.80661383 -84.80788553 48.39313726 -85.81875467 48.99743414 C-88.21279764 50.28259039 -88.21279764 50.28259039 -90.21279764 50.28259039 C-87.96903687 54.3693744 -85.71840394 58.45233435 -83.46279764 62.53259039 C-83.12698679 63.14029272 -82.79117594 63.74799505 -82.445189 64.37411261 C-77.39866184 73.4927056 -72.19759054 82.49506316 -66.71963358 91.36364508 C-66.25460428 92.12193609 -65.78957499 92.88022711 -65.31045389 93.66149664 C-64.90319071 94.31706549 -64.49592752 94.97263433 -64.07632303 95.6480689 C-63.21279764 97.28259039 -63.21279764 97.28259039 -63.21279764 99.28259039 C-57.43430644 96.20196618 -51.73345207 93.03199552 -46.13467264 89.63415289 C-45.11889139 89.0218482 -44.10311014 88.40954351 -43.05654764 87.77868414 C-40.97220349 86.51807701 -38.89415902 85.24700159 -36.82217264 83.96618414 C-26.98487765 78.08137374 -26.98487765 78.08137374 -21.21279764 79.28259039 C-19.08040943 82.4811727 -18.96414868 83.26623484 -18.97228861 86.93327093 C-18.96953362 87.88621133 -18.96677862 88.83915173 -18.96394014 89.8209691 C-18.97473447 91.39271505 -18.97473447 91.39271505 -18.98574686 92.99621344 C-18.98550579 94.11665202 -18.98526472 95.23709061 -18.98501635 96.39148188 C-18.98651161 100.02583783 -19.00175432 103.65998979 -19.01748514 107.29430914 C-19.02042491 109.53507148 -19.02246576 111.77583519 -19.02358866 114.01659918 C-19.03408365 122.3344505 -19.06200596 130.65227244 -19.08779764 138.97009039 C-19.14967264 166.84477789 -19.14967264 166.84477789 -19.21279764 195.28259039 C27.31720236 195.28259039 73.84720236 195.28259039 121.78720236 195.28259039 C121.70799595 158.22921672 121.70799595 158.22921672 121.60702658 121.17590094 C121.59799337 114.01659918 121.59799337 114.01659918 121.59631491 110.66718817 C121.59323964 108.32314562 121.58619712 105.97910628 121.57605124 103.63508368 C121.56146585 100.0887375 121.55938855 96.542585 121.56015158 92.99621344 C121.55295536 91.94838281 121.54575914 90.90055218 121.53834486 89.8209691 C121.54109985 88.86802871 121.54385485 87.91508831 121.54669333 86.93327093 C121.54484974 86.10273545 121.54300615 85.27219997 121.5411067 84.41649675 C121.78720236 82.28259039 121.78720236 82.28259039 123.78720236 79.28259039 C131.14247932 77.7377829 136.61364745 82.23728924 142.66220236 85.97009039 C144.74249244 87.22472497 146.82321503 88.47864271 148.90438986 89.73180914 C149.89793478 90.33428473 150.8914797 90.93676031 151.91513205 91.55749273 C158.45176489 96.12303777 158.45176489 96.12303777 165.78720236 98.28259039 C166.18922873 97.55370611 166.59125509 96.82482183 167.00546408 96.07385015 C181.09007008 70.56283126 181.09007008 70.56283126 187.81601095 59.31017828 C189.58556002 56.34841005 191.3094476 53.40229489 192.78720236 50.28259039 C191.91080099 50.01720465 191.03439962 49.7518189 190.13144064 49.47839117 C186.87758374 48.3149081 184.22925456 46.93599602 181.27938986 45.14977789 C180.22316427 44.51580084 179.16693869 43.88182379 178.07870626 43.22863531 C176.38753683 42.20346807 176.38753683 42.20346807 174.66220236 41.15759039 C172.25300517 39.70979129 169.84072874 38.26717472 167.42782736 36.82555914 C166.8072344 36.45431417 166.18664145 36.08306921 165.54724264 35.7005744 C157.37167697 30.82231422 149.09040621 26.12904411 140.81405783 21.42468023 C139.70433615 20.79384527 138.59461447 20.16301031 137.45126486 19.51305914 C136.47625021 18.96029303 135.50123556 18.40752691 134.49667501 17.83801031 C132.67700388 16.79339643 130.87578942 15.71601407 129.09384298 14.60827398 C126.46429318 13.09700648 124.66994971 12.86265945 121.66220236 12.72009039 C118.0117354 12.53701226 116.95133241 12.39201043 113.78720236 10.28259039 C113.47470236 6.78259039 113.47470236 6.78259039 113.78720236 3.28259039 C116.91639035 0.1534024 120.38387142 0.72838357 124.65922689 0.71252203 C132.13059517 0.96520119 137.33435788 4.19622942 143.47470236 8.28259039 C144.62664989 9.01267681 145.78109857 9.73882972 146.93783712 10.46130133 C148.73806253 11.58644798 150.53633541 12.71385936 152.32722616 13.85381842 C158.25116023 17.62144228 164.33045447 21.08789774 170.44763327 24.52969122 C173.36487435 26.17605302 176.26820997 27.84643612 179.17392111 29.51305914 C183.42800381 31.94830002 187.70116014 34.34265966 191.99423361 36.70837164 C193.84237948 37.75307887 195.69006658 38.79859827 197.53720236 39.84509039 C198.38339132 40.29722906 199.22958029 40.74936773 200.10141134 41.21520758 C202.23166642 42.44156014 204.03396095 43.56115583 205.78720236 45.28259039 C207.15673081 51.20338004 204.61660138 55.28014157 201.66220236 60.22009039 C201.22134298 60.98442389 200.78048361 61.74875738 200.32626486 62.5362525 C199.35366269 64.21709742 198.37381402 65.89376443 197.3877883 67.56677008 C195.69709892 70.43547487 194.02596181 73.31495992 192.35751486 76.19665289 C189.98504284 80.28821297 187.60059558 84.37239576 185.20517111 88.45055914 C183.04368497 92.13046963 180.89892321 95.8188831 178.77548361 99.52087164 C178.09195822 100.70507696 178.09195822 100.70507696 177.39462423 101.91320562 C176.55600752 103.36671306 175.72234206 104.8230931 174.89462423 106.28283453 C173.06804414 109.43193193 171.86794334 111.22876307 168.78720236 113.28259039 C163.21941856 113.10403173 159.26167438 110.50288421 154.66220236 107.65759039 C153.2640413 106.81077963 151.86559664 105.96443696 150.46688986 105.11852789 C149.78069571 104.69993505 149.09450155 104.28134222 148.38751364 103.85006475 C145.43957556 102.07304005 142.46944332 100.33714166 139.49472189 98.6053443 C138.42319876 97.9812467 137.35167562 97.35714911 136.24768209 96.71413946 C135.43572378 96.24172827 134.62376547 95.76931707 133.78720236 95.28259039 C133.78389221 95.8364281 133.78058207 96.39026581 133.77717161 96.96088648 C133.69598422 110.43118411 133.60378004 123.90136743 133.49967527 137.37150812 C133.44966547 143.88554826 133.40333583 150.39957181 133.36532736 156.9136939 C133.32853379 163.19664798 133.28219 169.47946481 133.22913885 175.76230192 C133.21056334 178.16292371 133.19546715 180.56357496 133.18385839 182.96424055 C133.16705002 186.31895485 133.13802789 189.67335262 133.10605001 193.02795172 C133.10280973 194.52659262 133.10280973 194.52659262 133.09950399 196.05550909 C133.08834051 196.96836172 133.07717703 197.88121435 133.06567526 198.82172918 C133.0601445 199.61539294 133.05461374 200.4090567 133.04891539 201.22677088 C132.78720236 203.28259039 132.78720236 203.28259039 130.78720236 206.28259039 C128.0635314 206.66011381 128.0635314 206.66011381 124.52389669 206.66354132 C123.54952288 206.67056127 123.54952288 206.67056127 122.55546474 206.67772305 C120.36883385 206.689733 118.18282278 206.68019305 115.99618673 206.67077398 C114.43265048 206.67483705 112.86911711 206.68017743 111.3055892 206.68670416 C107.05150558 206.70041526 102.79763949 206.69506357 98.54355192 206.6855669 C94.09884302 206.67798987 89.65415318 206.68501045 85.20944357 206.6897254 C77.74428085 206.69518868 70.27920706 206.68797636 62.81405783 206.67370367 C54.17413709 206.65737604 45.53442871 206.66266415 36.89451313 206.67918289 C29.4864164 206.69278149 22.07838372 206.6947254 14.67027855 206.68686688 C10.24137817 206.68218139 5.81257771 206.68158945 1.38368368 206.69147635 C-2.77942555 206.70012016 -6.94226008 206.69417178 -11.10533953 206.67679358 C-12.63642593 206.67281484 -14.16753532 206.67398636 -15.69861269 206.68058157 C-17.78255496 206.68873301 -19.86560704 206.67855484 -21.94949198 206.66354132 C-23.11757143 206.66241024 -24.28565088 206.66127916 -25.48912668 206.66011381 C-26.3879381 206.53553108 -27.28674952 206.41094835 -28.21279764 206.28259039 C-30.30657836 203.14191931 -30.46631882 202.40230167 -30.49127054 198.82172918 C-30.50243402 197.90887655 -30.51359751 196.99602392 -30.52509928 196.05550909 C-30.52725946 195.05641516 -30.52941965 194.05732122 -30.5316453 193.02795172 C-30.54169092 191.97412802 -30.55173655 190.92030432 -30.56208658 189.83454657 C-30.59302501 186.34457724 -30.60998345 182.85468499 -30.62686014 179.36462164 C-30.6455632 176.94751584 -30.66513595 174.53041663 -30.68554544 172.11332464 C-30.73696366 165.74622235 -30.77653755 159.37909887 -30.81368876 153.01189947 C-30.85366769 146.51678957 -30.90478786 140.02176856 -30.95498514 133.52673101 C-31.05185915 120.77874762 -31.13660537 108.03071331 -31.21279764 95.28259039 C-35.14628777 97.5232294 -39.07896267 99.76529016 -43.01089334 102.00866461 C-44.34823588 102.77142476 -45.68579923 103.53379789 -47.02358866 104.29577398 C-48.94791968 105.39192095 -50.87144885 106.48946332 -52.79482889 107.58727789 C-53.39181086 107.92693579 -53.98879282 108.26659369 -54.60386515 108.61654425 C-57.20173029 110.10093857 -59.72157626 111.62177614 -62.21279764 113.28259039 C-65.02529764 113.47009039 -65.02529764 113.47009039 -68.21279764 112.28259039 C-73.29530583 106.16935132 -76.8978202 98.65636332 -80.71279764 91.72009039 C-87.31480675 79.81466691 -94.12902074 68.04673925 -101.03628397 56.31603765 C-103.36680877 52.28803577 -104.1938456 50.00989503 -103.21279764 45.28259039 C-99.67046124 42.20255047 -95.56736272 40.07955763 -91.46279764 37.84509039 C-90.23864889 37.15324536 -89.01593016 36.45886454 -87.79458475 35.76208258 C-85.23776683 34.30885404 -82.67319798 32.87097994 -80.10098124 31.44518805 C-75.736845 29.02426797 -71.40472796 26.5490634 -67.07501078 24.06727362 C-66.48142771 23.72703665 -65.88784464 23.38679968 -65.2762742 23.0362525 C-64.39751627 22.53253622 -64.39751627 22.53253622 -63.50100565 22.01864386 C-61.85660422 21.07904821 -60.2081403 20.14657302 -58.55947733 19.21447515 C-57.49761209 18.61304693 -56.43574686 18.01161871 -55.34170389 17.39196539 C-53.74228197 16.50968016 -53.74228197 16.50968016 -52.1105485 15.60957098 C-49.31818639 14.01029493 -46.7728786 12.24070329 -44.20756388 10.29995489 C-30.05142895 0.04694709 -17.02684706 -0.38648704 0 0 Z M21.78720236 12.28259039 C21.78720236 23.99899154 22.00372142 28.6614187 27.97470236 37.53259039 C33.75969969 43.18903223 40.38497542 46.34757862 48.47470236 46.59509039 C56.83213414 46.47236746 63.03069276 42.80979851 69.06063986 37.21227789 C75.81168816 29.66698861 75.78720236 22.16656494 75.78720236 12.28259039 C57.96720236 12.28259039 40.14720236 12.28259039 21.78720236 12.28259039 Z " fill="#000000" transform="translate(300.21279764175415,61.71740961074829)"/>
<path d="M0 0 C0.96847178 -0.00467997 0.96847178 -0.00467997 1.95650864 -0.00945449 C4.12376741 -0.01744301 6.29074686 -0.01110767 8.45800781 -0.00482178 C10.01021489 -0.00753127 11.56242068 -0.01109196 13.11462402 -0.01544189 C17.33355348 -0.0245732 21.55238532 -0.0210186 25.77131653 -0.01468372 C30.18218249 -0.00962757 34.59303997 -0.0143141 39.00390625 -0.01745605 C46.41179915 -0.02109682 53.81965221 -0.0162937 61.22753906 -0.0067749 C69.79755217 0.00410986 78.36747012 0.00058436 86.93748093 -0.01042771 C94.28955272 -0.01949744 101.64159584 -0.02078741 108.99367142 -0.01555037 C113.38735769 -0.01242894 117.7809992 -0.01202608 122.17468262 -0.01862335 C126.30492111 -0.02439162 130.43503666 -0.02040949 134.56526184 -0.00883484 C136.08303116 -0.00618546 137.6008108 -0.00695806 139.11857605 -0.01136017 C141.18661327 -0.01680623 143.25425383 -0.00999331 145.32226562 0 C146.48075012 0.00075405 147.63923462 0.0015081 148.83282471 0.002285 C151.66113281 0.25396729 151.66113281 0.25396729 154.66113281 2.25396729 C155.01217651 4.81967163 155.01217651 4.81967163 154.99267578 8.18414307 C155.00138702 9.48632782 155.01009827 10.78851257 155.01907349 12.13015747 C155.01965885 12.84692532 155.02024422 13.56369316 155.02084732 14.30218124 C155.07925714 32.06118133 156.43796555 49.68864451 157.98144531 67.37115479 C158.09263451 68.65326088 158.2038237 69.93536697 158.31838226 71.25632477 C159.06748932 79.87108119 159.83384933 88.48425946 160.60450745 97.09710693 C161.50521766 107.1734383 162.39486248 117.25070125 163.27312851 127.32901382 C163.6006745 131.0555003 163.93769369 134.78104676 164.27542114 138.50662231 C164.47486956 140.77507043 164.67393669 143.04355212 164.87255859 145.31207275 C164.96809021 146.33733063 165.06362183 147.3625885 165.16204834 148.41891479 C165.94822673 157.59427373 165.94822673 157.59427373 164.66113281 162.25396729 C161.80177803 165.11332207 158.96818286 164.55690545 155.13793945 164.56036377 C153.97430122 164.57284904 153.97430122 164.57284904 152.78715515 164.58558655 C150.2151492 164.60974086 147.64339651 164.61846476 145.07128906 164.62506104 C143.28771384 164.63402258 141.50413941 164.64314433 139.7205658 164.65242004 C135.97881236 164.6689269 132.23714859 164.67661335 128.49536133 164.67950439 C123.69522081 164.6848929 118.89592 164.72258444 114.09601688 164.76824856 C110.41146245 164.79795553 106.72711186 164.80522654 103.04244804 164.80623055 C101.27254829 164.81044482 99.50264859 164.8229273 97.73286629 164.84374809 C95.25918511 164.87053492 92.78747168 164.86587678 90.3137207 164.85333252 C89.21252396 164.87558395 89.21252396 164.87558395 88.08908081 164.89828491 C86.04554749 164.86869812 86.04554749 164.86869812 82.66113281 164.25396729 C79.97356731 160.95002232 79.03415456 157.58070475 78.05566406 153.47271729 C77.79462891 152.38345947 77.53359375 151.29420166 77.26464844 150.17193604 C77.00361328 149.04400635 76.74257813 147.91607666 76.47363281 146.75396729 C76.20099609 145.6260376 75.92835938 144.49810791 75.64746094 143.33599854 C73.48716492 134.18587255 73.48716492 134.18587255 73.66113281 129.25396729 C73.00113281 129.25396729 72.34113281 129.25396729 71.66113281 129.25396729 C71.50451172 131.09668213 71.50451172 131.09668213 71.34472656 132.97662354 C70.67189729 139.01316737 69.21393042 144.81247551 67.72363281 150.69146729 C67.45873047 151.7787915 67.19382812 152.86611572 66.92089844 153.98638916 C66.66115234 155.02215088 66.40140625 156.0579126 66.13378906 157.12506104 C65.78199585 158.53162964 65.78199585 158.53162964 65.4230957 159.96661377 C64.66113281 162.25396729 64.66113281 162.25396729 62.66113281 164.25396729 C60.11807795 164.46274463 57.68296865 164.54762813 55.13793945 164.54449463 C54.36218063 164.55121185 53.58642181 164.55792908 52.78715515 164.56484985 C50.21513517 164.58389409 47.64337521 164.58775718 45.07128906 164.58990479 C43.28771353 164.59632802 41.50413907 164.60305601 39.7205658 164.6100769 C35.97880611 164.62206558 32.23713887 164.62575608 28.49536133 164.62457275 C23.69533607 164.62436942 18.89590194 164.65167923 14.09601688 164.68611717 C10.41146612 164.70832943 6.72705892 164.71241206 3.04244804 164.7113533 C1.27256672 164.71371754 -0.49731808 164.72258711 -2.26713371 164.73801804 C-4.74060616 164.75756506 -7.21278706 164.75188553 -9.6862793 164.73980713 C-10.42041046 164.75104614 -11.15454163 164.76228516 -11.91091919 164.77386475 C-14.97319533 164.73577065 -16.88544547 164.60986246 -19.33189392 162.68962097 C-20.72885576 159.31066807 -20.45624418 156.35070315 -20.10302734 152.79766846 C-20.04212292 152.05177019 -19.98121849 151.30587193 -19.91846848 150.53737068 C-19.71224542 148.05978606 -19.48258464 145.5849498 -19.25292969 143.10943604 C-19.10242484 141.35575172 -18.95341427 139.60193859 -18.80581665 137.8480072 C-18.41367126 133.23427134 -18.00205985 128.62247965 -17.58589172 124.01085663 C-17.19289761 119.62489031 -16.81641469 115.23752698 -16.43945312 110.85015869 C-15.84232951 103.92645717 -15.24120161 97.00311674 -14.63574219 90.08013916 C-14.56008907 89.21374376 -14.48443596 88.34734837 -14.40649033 87.45469856 C-14.02262951 83.06564215 -13.6348632 78.67698141 -13.24023438 74.28887939 C-12.76950777 69.04513277 -12.31094793 63.80042988 -11.86230469 58.55474854 C-11.78947014 57.70805729 -11.71663559 56.86136604 -11.64159393 55.98901749 C-10.43199264 41.70907463 -9.86660017 27.4579888 -9.78598022 13.12733459 C-9.77674908 12.40604937 -9.76751793 11.68476414 -9.75800705 10.94162178 C-9.73360492 9.00455881 -9.72506032 7.06731431 -9.71768188 5.13011169 C-9.59267303 4.18098404 -9.46766418 3.23185638 -9.33886719 2.25396729 C-5.76929975 -0.12574434 -4.23727557 0.00275802 0 0 Z M0.66113281 11.25396729 C0.66113281 18.51396729 0.66113281 25.77396729 0.66113281 33.25396729 C19.14113281 33.25396729 37.62113281 33.25396729 56.66113281 33.25396729 C56.99113281 28.63396729 57.32113281 24.01396729 57.66113281 19.25396729 C58.66113281 18.25396729 58.66113281 18.25396729 61.66113281 18.12896729 C64.66113281 18.25396729 64.66113281 18.25396729 65.66113281 19.25396729 C65.89641054 21.60383991 66.07499698 23.95952767 66.22363281 26.31646729 C66.30742187 27.60681885 66.39121094 28.89717041 66.47753906 30.22662354 C66.538125 31.22564697 66.59871094 32.22467041 66.66113281 33.25396729 C68.97113281 33.25396729 71.28113281 33.25396729 73.66113281 33.25396729 C73.72171875 32.25494385 73.78230469 31.25592041 73.84472656 30.22662354 C73.97041016 28.29109619 73.97041016 28.29109619 74.09863281 26.31646729 C74.22044922 24.38480713 74.22044922 24.38480713 74.34472656 22.41412354 C74.66113281 19.25396729 74.66113281 19.25396729 75.66113281 18.25396729 C78.66113281 18.12896729 78.66113281 18.12896729 81.66113281 18.25396729 C85.22795524 21.82078971 83.30174498 28.22253758 83.66113281 33.25396729 C103.79113281 33.25396729 123.92113281 33.25396729 144.66113281 33.25396729 C144.66113281 25.99396729 144.66113281 18.73396729 144.66113281 11.25396729 C97.14113281 11.25396729 49.62113281 11.25396729 0.66113281 11.25396729 Z M0.66113281 44.25396729 C-1.3974521 65.17982297 -3.33399647 86.11042307 -5.12866211 107.06036377 C-5.46471398 110.98138422 -5.80554474 114.90197496 -6.14739513 118.82249355 C-6.41481542 121.89789582 -6.67913692 124.9735587 -6.94259071 128.04930305 C-7.06707466 129.49694346 -7.19264315 130.94449109 -7.31938744 132.39193535 C-7.49474515 134.3983171 -7.66530843 136.40511611 -7.83569336 138.41192627 C-7.9332341 139.54420151 -8.03077484 140.67647675 -8.13127136 141.84306335 C-8.36238039 145.64030098 -8.33886719 149.44970324 -8.33886719 153.25396729 C12.78113281 153.25396729 33.90113281 153.25396729 55.66113281 153.25396729 C59.52698254 136.60647459 59.52698254 136.60647459 63.37939453 119.95587158 C63.8660489 117.87152917 64.35315956 115.78729322 64.84082031 113.70318604 C65.08968994 112.61735229 65.33855957 111.53151855 65.5949707 110.41278076 C65.83836182 109.37770386 66.08175293 108.34262695 66.33251953 107.27618408 C66.54125702 106.3768364 66.74999451 105.47748871 66.96505737 104.55088806 C67.66113281 102.25396729 67.66113281 102.25396729 69.66113281 99.25396729 C72.78613281 99.06646729 72.78613281 99.06646729 75.66113281 99.25396729 C78.42365306 105.09462307 79.93342614 110.93076597 81.36035156 117.21881104 C81.57357056 118.13569702 81.78678955 119.05258301 82.00646973 119.99725342 C82.79430206 123.39368302 83.57081307 126.79273072 84.34863281 130.19146729 C86.97832031 141.60740479 86.97832031 141.60740479 89.66113281 153.25396729 C110.78113281 153.25396729 131.90113281 153.25396729 153.66113281 153.25396729 C152.7971304 135.93960724 152.7971304 135.93960724 151.50622559 118.66539001 C151.39899422 117.42881433 151.39899422 117.42881433 151.28959656 116.16725731 C151.21626602 115.32317629 151.14293549 114.47909527 151.06738281 113.60943604 C150.91401557 111.81635135 150.76090428 110.02324476 150.60803223 108.2301178 C150.29084879 104.51839292 149.97132896 100.8068798 149.64990234 97.09552002 C149.23926596 92.35302401 148.8335975 87.61011884 148.42951202 82.86706066 C148.11537354 79.18399122 147.79919496 75.50109923 147.48234558 71.8182621 C147.33194602 70.06849764 147.18204539 68.31869023 147.03266907 66.56883812 C146.82422397 64.13191754 146.61316006 61.69523758 146.40136719 59.25860596 C146.31093391 58.19334686 146.31093391 58.19334686 146.21867371 57.10656738 C145.83942088 52.78286443 145.27656721 48.56200809 144.66113281 44.25396729 C124.53113281 44.25396729 104.40113281 44.25396729 83.66113281 44.25396729 C83.33113281 50.85396729 83.00113281 57.45396729 82.66113281 64.25396729 C76.66113281 65.25396729 76.66113281 65.25396729 74.66113281 64.25396729 C74.33113281 57.65396729 74.00113281 51.05396729 73.66113281 44.25396729 C71.35113281 44.25396729 69.04113281 44.25396729 66.66113281 44.25396729 C66.33113281 58.77396729 66.00113281 73.29396729 65.66113281 88.25396729 C59.66113281 89.25396729 59.66113281 89.25396729 57.66113281 88.25396729 C57.33113281 73.73396729 57.00113281 59.21396729 56.66113281 44.25396729 C38.18113281 44.25396729 19.70113281 44.25396729 0.66113281 44.25396729 Z " fill="#000000" transform="translate(279.3388671875,284.74603271484375)"/>
<path d="M0 0 C1.17377197 0.01264893 2.34754395 0.02529785 3.55688477 0.03833008 C6.89706848 0.10096292 10.22591839 0.22565447 13.5625 0.390625 C14.56156372 0.429599 15.56062744 0.468573 16.58996582 0.50872803 C23.33427785 1.01897197 23.33427785 1.01897197 26.45141602 4.44189453 C26.96244873 5.53356934 27.47348145 6.62524414 28 7.75 C28.55550537 8.71115723 29.11101074 9.67231445 29.68334961 10.66259766 C36.01206815 24.61543959 34.79101361 39.87184227 34.58685303 54.86358643 C34.55409192 57.90577135 34.55545609 60.94755815 34.55726719 63.98988914 C34.55645381 66.923853 34.54004943 69.85755456 34.51826286 72.79143143 C34.50872734 74.19088391 34.50280636 75.59036589 34.50058174 76.98984909 C34.49410195 78.93002831 34.46550562 80.87009611 34.43579102 82.81005859 C34.42435562 83.91207611 34.41292023 85.01409363 34.40113831 86.14950562 C34.26876266 87.00766876 34.13638702 87.86583191 34 88.75 C30.55377814 91.04748124 29.28812923 91.00104746 25.23059082 91.00396729 C24.02757828 91.00960693 22.82456573 91.01524658 21.58509827 91.02105713 C20.25009095 91.01716843 18.91508423 91.01307209 17.58007812 91.00878906 C16.17565225 91.0114988 14.77122779 91.01505963 13.36680603 91.01940918 C9.55075289 91.0285376 5.73480773 91.02498709 1.91875267 91.01865101 C-2.07170532 91.01359336 -6.06215396 91.01828181 -10.0526123 91.02142334 C-16.75433007 91.02506367 -23.45600377 91.02026214 -30.15771484 91.01074219 C-37.90975777 90.9998575 -45.66169549 91.00338303 -53.41373587 91.014395 C-60.06517739 91.02346597 -66.71658722 91.02475408 -73.36803293 91.01951766 C-77.34253572 91.01639691 -81.31698903 91.01599148 -85.29148865 91.02259064 C-89.02775951 91.02836072 -92.76389452 91.02437346 -96.50015068 91.01280212 C-97.87278963 91.01015372 -99.24543998 91.01092371 -100.61807442 91.01532745 C-102.48890911 91.02077694 -104.35976874 91.01273758 -106.23059082 91.00396729 C-107.27846016 91.00321323 -108.3263295 91.00245918 -109.40595245 91.00168228 C-112 90.75 -112 90.75 -115 88.75 C-115.67310387 84.70730968 -115.4627591 80.59197498 -115.4375 76.5 C-115.45748047 75.36691406 -115.47746094 74.23382813 -115.49804688 73.06640625 C-115.49432893 66.72358504 -115.4532092 62.46657103 -111 57.75 C-109.906875 57.193125 -108.81375 56.63625 -107.6875 56.0625 C-104.1559698 54.2556706 -102.75368867 52.07983621 -100.75 48.6875 C-94.21245564 37.79159273 -85.71423877 31.29332182 -74.99713135 24.9480896 C-72.87395382 23.67438423 -70.77685707 22.36336463 -68.67919922 21.0480957 C-46.24081799 7.13568232 -26.6861788 -0.40325781 0 0 Z M-51.125 23.75 C-52.10454651 24.26595734 -53.08409302 24.78191467 -54.09332275 25.31350708 C-75.52655419 36.00189359 -75.52655419 36.00189359 -90 53.75 C-61.95 53.75 -33.9 53.75 -5 53.75 C-4.67 45.5 -4.34 37.25 -4 28.75 C-2.22509454 26.97509454 0.37784902 27.51500027 2.78515625 27.43359375 C4.53989258 27.37075195 4.53989258 27.37075195 6.33007812 27.30664062 C7.56177734 27.26732422 8.79347656 27.22800781 10.0625 27.1875 C11.29806641 27.14431641 12.53363281 27.10113281 13.80664062 27.05664062 C16.87094841 26.95015889 19.93545885 26.84953935 23 26.75 C21.35 22.13 19.7 17.51 18 12.75 C-7.68464271 9.91699566 -27.98987275 11.53125805 -51.125 23.75 Z M5 37.75 C5 43.03 5 48.31 5 53.75 C11.27 53.75 17.54 53.75 24 53.75 C24 48.47 24 43.19 24 37.75 C17.73 37.75 11.46 37.75 5 37.75 Z M-104 66.75 C-105.52704628 70.80409255 -105.52704628 70.80409255 -105 79.75 C-62.43 79.75 -19.86 79.75 24 79.75 C24 74.8 24 69.85 24 64.75 C7.75384356 64.70372885 -8.49228577 64.66802451 -24.73849201 64.64637566 C-32.28165745 64.63605715 -39.82478122 64.62198588 -47.36791992 64.59912109 C-53.94148527 64.57920475 -60.51502044 64.56628774 -67.08861512 64.56182301 C-70.57022122 64.55921264 -74.051741 64.5530653 -77.53331947 64.53853989 C-81.41716776 64.52246717 -85.30093112 64.52201919 -89.18481445 64.52294922 C-90.34287094 64.51575867 -91.50092743 64.50856812 -92.69407654 64.50115967 C-94.27791641 64.50528366 -94.27791641 64.50528366 -95.89375305 64.50949097 C-97.27229446 64.50672559 -97.27229446 64.50672559 -98.67868519 64.50390434 C-101.27386402 64.59754417 -101.27386402 64.59754417 -104 66.75 Z " fill="#000000" transform="translate(138,74.25)"/>
<path d="M0 0 C0.85521744 0.00091141 1.71043488 0.00182281 2.59156799 0.00276184 C3.46946487 -0.00152328 4.34736176 -0.00580841 5.25186157 -0.01022339 C7.11044959 -0.01597191 8.96906012 -0.01646312 10.82765198 -0.01213074 C13.67447757 -0.00897327 16.52026181 -0.03241428 19.36695862 -0.05778503 C21.17099376 -0.06005819 22.97503171 -0.06076145 24.77906799 -0.05973816 C25.6322612 -0.06894791 26.48545441 -0.07815765 27.36450195 -0.08764648 C33.316917 -0.04095954 33.316917 -0.04095954 35.4770813 1.67056274 C36.75172424 3.30354309 36.75172424 3.30354309 37.12672424 5.80354309 C36.68054318 8.77808354 36.06628737 9.46117287 33.75172424 11.30354309 C30.77433288 11.60195788 28.01054213 11.72381377 25.03297424 11.70198059 C24.17868835 11.70485077 23.32440247 11.70772095 22.44422913 11.7106781 C20.63868039 11.7127189 18.83310955 11.70718792 17.02760315 11.69465637 C14.26196413 11.67860253 11.4977865 11.69450408 8.73219299 11.71369934 C6.97828351 11.71171691 5.22437494 11.70787324 3.47047424 11.70198059 C2.64229187 11.70805328 1.8141095 11.71412598 0.96083069 11.72038269 C-4.80090919 11.6497045 -4.80090919 11.6497045 -6.97080994 9.97068787 C-8.91345579 7.43545613 -8.57701793 5.39371957 -8.24827576 2.30354309 C-5.59585554 -0.34887713 -3.60980256 0.04350046 0 0 Z " fill="#000000" transform="translate(93.24827575683594,347.6964569091797)"/>
<path d="M0 0 C2.20576197 -0.00218874 4.41102562 -0.02035586 6.61669922 -0.03930664 C8.01383292 -0.0422402 9.410969 -0.04422525 10.80810547 -0.04516602 C12.08363281 -0.0492749 13.35916016 -0.05338379 14.67333984 -0.05761719 C17.71435547 0.18530273 17.71435547 0.18530273 19.71435547 2.18530273 C20.02685547 5.68530273 20.02685547 5.68530273 19.71435547 9.18530273 C14.92748279 12.37655118 9.43264306 11.51856551 3.83544922 11.50097656 C1.72164497 11.49781364 -0.390763 11.52129286 -2.50439453 11.54663086 C-3.84814277 11.54890368 -5.19189476 11.54960743 -6.53564453 11.54858398 C-7.75767578 11.55156494 -8.97970703 11.5545459 -10.23876953 11.55761719 C-13.28564453 11.18530273 -13.28564453 11.18530273 -15.21923828 9.88916016 C-16.28564453 8.18530273 -16.28564453 8.18530273 -16.09814453 4.56030273 C-15.83001953 3.44655273 -15.56189453 2.33280273 -15.28564453 1.18530273 C-10.8799275 -1.01755578 -4.89985645 -0.00054674 0 0 Z " fill="#000000" transform="translate(59.28564453125,347.814697265625)"/>
</svg>