<svg width="31" height="39" viewBox="0 0 31 39" fill="none" xmlns="http://www.w3.org/2000/svg">
<path d="M3.86667 38.6667C2.80333 38.6667 1.89306 38.2881 1.13583 37.5308C0.378611 36.7736 0 35.8633 0 34.8V11.6C0 10.5367 0.378611 9.62639 1.13583 8.86917C1.89306 8.11194 2.80333 7.73333 3.86667 7.73333H7.73333C7.73333 5.60667 8.49056 3.78611 10.005 2.27167C11.5194 0.757222 13.34 0 15.4667 0C17.5933 0 19.4139 0.757222 20.9283 2.27167C22.4428 3.78611 23.2 5.60667 23.2 7.73333H27.0667C28.13 7.73333 29.0403 8.11194 29.7975 8.86917C30.5547 9.62639 30.9333 10.5367 30.9333 11.6V34.8C30.9333 35.8633 30.5547 36.7736 29.7975 37.5308C29.0403 38.2881 28.13 38.6667 27.0667 38.6667H3.86667ZM3.86667 34.8H27.0667V11.6H23.2V15.4667C23.2 16.0144 23.0147 16.4736 22.6442 16.8442C22.2736 17.2147 21.8144 17.4 21.2667 17.4C20.7189 17.4 20.2597 17.2147 19.8892 16.8442C19.5186 16.4736 19.3333 16.0144 19.3333 15.4667V11.6H11.6V15.4667C11.6 16.0144 11.4147 16.4736 11.0442 16.8442C10.6736 17.2147 10.2144 17.4 9.66667 17.4C9.11889 17.4 8.65972 17.2147 8.28917 16.8442C7.91861 16.4736 7.73333 16.0144 7.73333 15.4667V11.6H3.86667V34.8ZM11.6 7.73333H19.3333C19.3333 6.67 18.9547 5.75972 18.1975 5.0025C17.4403 4.24528 16.53 3.86667 15.4667 3.86667C14.4033 3.86667 13.4931 4.24528 12.7358 5.0025C11.9786 5.75972 11.6 6.67 11.6 7.73333Z" fill="#1C1B1F"/>
</svg>
