<svg width="14" height="16" viewBox="0 0 14 16" fill="none" xmlns="http://www.w3.org/2000/svg">
<path d="M2.25 16C1.80313 16 1.42057 15.8433 1.10234 15.53C0.784115 15.2167 0.625 14.84 0.625 14.4V4.8C0.625 4.36 0.784115 3.98333 1.10234 3.67C1.42057 3.35667 1.80313 3.2 2.25 3.2H3.875C3.875 2.32 4.19323 1.56667 4.82969 0.94C5.46615 0.313333 6.23125 0 7.125 0C8.01875 0 8.78385 0.313333 9.42031 0.94C10.0568 1.56667 10.375 2.32 10.375 3.2H12C12.4469 3.2 12.8294 3.35667 13.1477 3.67C13.4659 3.98333 13.625 4.36 13.625 4.8V14.4C13.625 14.84 13.4659 15.2167 13.1477 15.53C12.8294 15.8433 12.4469 16 12 16H2.25ZM2.25 14.4H12V4.8H10.375V6.4C10.375 6.62667 10.2971 6.81667 10.1414 6.97C9.98568 7.12333 9.79271 7.2 9.5625 7.2C9.33229 7.2 9.13932 7.12333 8.98359 6.97C8.82786 6.81667 8.75 6.62667 8.75 6.4V4.8H5.5V6.4C5.5 6.62667 5.42214 6.81667 5.26641 6.97C5.11068 7.12333 4.91771 7.2 4.6875 7.2C4.45729 7.2 4.26432 7.12333 4.10859 6.97C3.95286 6.81667 3.875 6.62667 3.875 6.4V4.8H2.25V14.4ZM5.5 3.2H8.75C8.75 2.76 8.59089 2.38333 8.27266 2.07C7.95443 1.75667 7.57188 1.6 7.125 1.6C6.67812 1.6 6.29557 1.75667 5.97734 2.07C5.65911 2.38333 5.5 2.76 5.5 3.2Z" fill="white"/>
</svg>
