<svg xmlns="http://www.w3.org/2000/svg" version="1.1" width="512" height="512">
<path d="M0 0 C11.26378412 7.69871193 19.09495698 17.27551377 22.7578125 30.6171875 C24.10601072 40.67682036 24.31436826 51.89787561 20.11328125 61.26953125 C19.78457031 62.01074219 19.45585937 62.75195312 19.1171875 63.515625 C12.7399458 76.24804182 2.5387553 83.63205828 -10.1953125 89.21484375 C-12.47325045 90.63526695 -13.48104785 91.96534845 -14.88671875 94.26953125 C-15.46286133 97.53828166 -15.46286133 97.53828166 -15.57421875 101.01953125 C-15.67283203 102.77523437 -15.67283203 102.77523437 -15.7734375 104.56640625 C-15.81082031 105.4584375 -15.84820312 106.35046875 -15.88671875 107.26953125 C-15.29533835 107.26400049 -14.70395796 107.25846973 -14.09465694 107.25277138 C0.31147581 107.12012166 14.71755397 107.02090752 29.12416172 106.95865822 C36.09121734 106.92775261 43.05786468 106.88563651 50.0246582 106.81689453 C56.74850512 106.75058149 63.47184038 106.71582115 70.19602776 106.70026779 C72.760901 106.68918446 75.32575113 106.66754113 77.8904438 106.63515091 C81.48419397 106.5915709 85.07619397 106.58559827 88.67016602 106.58837891 C90.25944412 106.55602142 90.25944412 106.55602142 91.88082886 106.52301025 C97.98566131 106.57409515 101.39285024 107.35333847 105.76650906 111.73340416 C106.21094388 112.2403261 106.6553787 112.74724804 107.11328125 113.26953125 C107.84933594 114.10613281 108.58539063 114.94273437 109.34375 115.8046875 C109.98957031 116.63871094 110.63539063 117.47273438 111.30078125 118.33203125 C114.78932432 122.70910923 118.42319049 126.86744367 122.23828125 130.95703125 C123.01691528 131.79258545 123.01691528 131.79258545 123.8112793 132.64501953 C124.8080619 133.71455883 125.80488609 134.78405939 126.80175781 135.85351562 C130.60390138 139.95858501 134.22208021 144.2233501 137.8515625 148.48046875 C138.87611217 149.68115166 139.90085771 150.88166746 140.92578125 152.08203125 C141.44309814 152.68821289 141.96041504 153.29439453 142.4934082 153.91894531 C145.69830354 157.66023945 148.96537403 161.33068508 152.30078125 164.95703125 C155.47158867 168.40968821 158.49363156 171.92484091 161.42578125 175.58203125 C164.98114698 179.99320183 168.73277694 184.14761307 172.61328125 188.26953125 C177.31415359 193.26352958 181.76996149 198.36832837 186.0390625 203.7421875 C188.12614623 206.28520666 190.34471195 208.63853728 192.61328125 211.01953125 C195.15998993 213.86615173 196.11745436 215.28270951 197.30078125 219.01953125 C196.96479797 224.84324142 193.44714223 228.19261293 189.42578125 232.14453125 C188.21341797 233.34722656 188.21341797 233.34722656 186.9765625 234.57421875 C184.84252172 236.58307023 182.69255274 238.49881849 180.46875 240.40234375 C175.08140542 245.08241302 170.12003438 250.1913017 165.11328125 255.26953125 C159.49139637 260.97167417 153.87469679 266.61282543 147.78417969 271.82128906 C145.66088016 273.66164745 143.69235203 275.62665408 141.73828125 277.64453125 C138.50455084 280.98132877 137.19241071 282.1458094 132.43359375 282.69140625 C127.19143261 282.61108472 124.62128885 280.02682071 120.98828125 276.51953125 C119.68297072 275.32347724 118.3769642 274.12818242 117.0703125 272.93359375 C116.41498535 272.32290039 115.7596582 271.71220703 115.08447266 271.08300781 C112.02243547 268.26596394 108.8502952 265.58326548 105.67578125 262.89453125 C102.06603317 259.81578623 98.47506326 256.71719176 94.90600586 253.59130859 C94.19343124 252.96735199 93.48085663 252.34339539 92.74668884 251.70053101 C92.20766434 251.22830109 91.66863983 250.75607117 91.11328125 250.26953125 C91.11108141 251.96473215 91.11108141 251.96473215 91.10883713 253.69417953 C91.07227387 281.16805982 91.01286606 308.6418179 90.92937851 336.11559677 C90.88953604 349.40161841 90.85717004 362.68755878 90.84228516 375.97363281 C90.82929562 387.55113252 90.8024001 399.1285012 90.75866818 410.70592713 C90.73599266 416.83849286 90.72037422 422.97089662 90.7213974 429.103508 C90.72214041 434.87208354 90.70433422 440.64030021 90.67211342 446.40878296 C90.66357334 448.52921158 90.66189214 450.64968026 90.66747856 452.77011871 C90.67407821 455.65932389 90.6562949 458.54737365 90.63226318 461.4364624 C90.64390381 462.70299829 90.64390381 462.70299829 90.6557796 463.99512076 C90.60552793 467.3941271 90.37002325 469.8315231 88.63597488 472.78985214 C84.93425036 474.96108862 81.40191653 474.82127834 77.23120117 474.77746582 C76.32405711 474.78370578 75.41691305 474.78994575 74.48227978 474.7963748 C71.43584053 474.8123579 68.3901955 474.79967964 65.34375 474.78710938 C63.162481 474.79252812 60.98121566 474.79964938 58.79995728 474.80834961 C52.87027167 474.8266152 46.94086383 474.81950196 41.01117325 474.80683327 C34.81237273 474.79672241 28.61359635 474.80609362 22.41479492 474.81237793 C11.33674337 474.82012665 0.25881499 474.80767806 -10.81921685 474.78734058 C-20.8648922 474.76946935 -30.91038267 474.7725734 -40.95605469 474.79101562 C-52.61997952 474.81234361 -64.28378864 474.82039141 -75.94773006 474.80856657 C-82.12272011 474.80232301 -88.29758278 474.80151977 -94.4725647 474.81471252 C-100.27728611 474.82624743 -106.08165758 474.81828822 -111.88634109 474.7951355 C-114.01968428 474.78983581 -116.15305679 474.79138359 -118.2863884 474.80018616 C-121.19287257 474.81107533 -124.09822699 474.79745812 -127.00463867 474.77746582 C-127.85404935 474.78638871 -128.70346003 474.79531159 -129.57861042 474.80450487 C-132.9908242 474.75880347 -135.43952336 474.53183249 -138.40941238 472.78985214 C-140.57079093 469.10248733 -140.44388496 465.59102898 -140.40570068 461.4364624 C-140.41320194 460.53466318 -140.42070319 459.63286397 -140.42843175 458.7037375 C-140.44876544 455.67563184 -140.44059505 452.6482709 -140.43261719 449.62011719 C-140.4413491 447.45205949 -140.45183353 445.28400825 -140.46394348 443.1159668 C-140.49187074 437.22377859 -140.49520668 431.33179996 -140.49422359 425.43955517 C-140.49734691 419.28421998 -140.52295298 413.12897999 -140.54620361 406.97369385 C-140.58681172 395.31489191 -140.60711565 383.65614596 -140.62017751 371.99728417 C-140.63603125 358.72532362 -140.67444001 345.45346672 -140.71477079 332.18156004 C-140.79723561 304.87758248 -140.8512866 277.57360748 -140.88671875 250.26953125 C-142.08820557 251.38013916 -142.08820557 251.38013916 -143.31396484 252.51318359 C-144.38762298 253.50235716 -145.46135754 254.49144778 -146.53515625 255.48046875 C-147.06036865 255.96636475 -147.58558105 256.45226074 -148.12670898 256.95288086 C-152.34884991 260.83699049 -156.74115668 264.46988218 -161.2109375 268.06640625 C-164.81572423 271.03443503 -168.25831534 274.16467276 -171.6953125 277.32421875 C-178.13787036 283.04328081 -178.13787036 283.04328081 -183.75 282.8046875 C-188.0973395 281.71586573 -190.84982666 278.39827641 -193.88671875 275.26953125 C-194.62019531 274.53605469 -195.35367188 273.80257813 -196.109375 273.046875 C-197.55602709 271.60022291 -198.99339914 270.14418377 -200.41796875 268.67578125 C-202.39206294 266.75166413 -204.38855624 264.96519725 -206.48046875 263.17578125 C-212.40073062 258.03900231 -217.82416936 252.39007761 -223.32324219 246.8125 C-229.90054653 240.14989273 -236.61844538 233.81129 -243.82421875 227.83203125 C-246.01402236 225.11136615 -247.04822047 222.95427611 -247.265625 219.4296875 C-246.45082007 214.78445941 -242.98660533 211.63091968 -239.88671875 208.26953125 C-239.10167969 207.40199219 -238.31664062 206.53445312 -237.5078125 205.640625 C-235.81675665 203.78019893 -234.11860222 201.92620491 -232.4140625 200.078125 C-230.03646813 197.43594517 -227.79469775 194.73161143 -225.57421875 191.95703125 C-221.49858831 186.90036411 -217.13308915 182.18604822 -212.68432617 177.46166992 C-209.44138233 173.99909013 -206.35249698 170.47675404 -203.38671875 166.76953125 C-199.90109139 162.41249705 -196.20878208 158.32831592 -192.38671875 154.26953125 C-187.76376917 149.35992827 -183.42070696 144.32474582 -179.203125 139.05859375 C-175.53446278 134.64135121 -171.59900623 130.47899063 -167.68359375 126.28125 C-163.73598996 122.04695611 -159.92682897 117.69778308 -156.203125 113.265625 C-155.66558594 112.62753906 -155.12804687 111.98945313 -154.57421875 111.33203125 C-154.10371094 110.76613281 -153.63320312 110.20023437 -153.1484375 109.6171875 C-151.43821843 107.79048292 -150.31151505 107.29474205 -147.81339073 107.14648342 C-146.52195876 107.14786611 -146.52195876 107.14786611 -145.20443726 107.14927673 C-144.2172319 107.14790207 -143.23002655 107.1465274 -142.21290588 107.14511108 C-141.12606003 107.14870636 -140.03921417 107.15230164 -138.91943359 107.15600586 C-137.77797379 107.15585983 -136.63651398 107.15571381 -135.46046448 107.15556335 C-131.67284266 107.15626219 -127.88526952 107.16405327 -124.09765625 107.171875 C-121.47734606 107.17373928 -118.85703552 107.17516314 -116.23672485 107.17616272 C-110.03544714 107.17927373 -103.83418701 107.18748403 -97.63291705 107.19751221 C-90.57375712 107.20868047 -83.51459636 107.2141856 -76.45542979 107.21920764 C-61.93251703 107.22966682 -47.40961814 107.24726183 -32.88671875 107.26953125 C-32.91064697 106.10832764 -32.9345752 104.94712402 -32.95922852 103.75073242 C-32.97858296 102.20882849 -32.99735078 100.66691711 -33.015625 99.125 C-33.03290649 98.36183472 -33.05018799 97.59866943 -33.06799316 96.81237793 C-33.13409118 89.36733732 -31.26371987 84.11579307 -26.3125 78.4765625 C-22.67719929 75.04463525 -18.76320991 73.20463727 -14.16796875 71.34765625 C-10.92407083 69.8145812 -8.28474552 67.70145613 -5.515625 65.44140625 C-3.88671875 64.26953125 -3.88671875 64.26953125 -1.88671875 64.26953125 C-1.59925781 63.69332031 -1.31179688 63.11710937 -1.015625 62.5234375 C-0.29848202 61.091633 0.42244132 59.66171089 1.1484375 58.234375 C1.65697266 57.23083984 1.65697266 57.23083984 2.17578125 56.20703125 C2.51738281 55.53542969 2.85898437 54.86382812 3.2109375 54.171875 C6.28708703 47.68665932 6.15771946 39.52278565 4.46484375 32.62890625 C1.27520223 24.83200476 -4.53022454 18.33908124 -11.88671875 14.26953125 C-20.01509411 11.09636067 -29.17461687 10.88371433 -37.38671875 13.95703125 C-45.69949441 17.86172293 -50.52549951 23.6771699 -54.07421875 32.08203125 C-54.8245983 35.02582794 -55.29696099 37.89545341 -55.76171875 40.89453125 C-56.3432461 44.13258125 -56.79659524 46.12048083 -58.51171875 48.95703125 C-61.87585183 50.81615743 -65.14392245 51.26371152 -68.88671875 50.26953125 C-71.80775682 48.11610283 -72.76601454 46.9005229 -73.453125 43.30859375 C-73.43810319 30.17953415 -70.06336942 18.87343489 -60.88671875 9.26953125 C-60.22929687 8.57214844 -59.571875 7.87476563 -58.89453125 7.15625 C-43.66147767 -7.6583131 -18.32326234 -10.98403953 0 0 Z M-154.88671875 137.26953125 C-156.34802386 139.09646246 -157.82402837 140.91189362 -159.32421875 142.70703125 C-160.03449219 143.59261719 -160.74476563 144.47820312 -161.4765625 145.390625 C-164.86013412 149.43226565 -168.47502975 153.23928789 -172.08740234 157.07568359 C-176.12616411 161.38833976 -179.87619077 165.86791896 -183.5703125 170.48046875 C-187.24658372 174.90687288 -191.19098247 179.07754237 -195.11328125 183.28515625 C-199.42900826 187.91512123 -203.54976418 192.70369307 -207.66015625 197.515625 C-208.69390598 198.72534967 -209.72776286 199.93498278 -210.76171875 201.14453125 C-211.53177246 202.04570679 -211.53177246 202.04570679 -212.31738281 202.96508789 C-216.75531224 208.14524209 -221.28885267 213.2304558 -225.88671875 218.26953125 C-224.46679325 221.50001873 -222.75052488 223.65195613 -220.25390625 226.1328125 C-219.52945313 226.85533203 -218.805 227.57785156 -218.05859375 228.32226562 C-217.300625 229.06798828 -216.54265625 229.81371094 -215.76171875 230.58203125 C-215.02695313 231.31615234 -214.2921875 232.05027344 -213.53515625 232.80664062 C-210.06780571 236.24652096 -206.56358336 239.59635578 -202.86328125 242.78515625 C-198.49302051 246.55327535 -194.44082325 250.60412734 -190.38671875 254.70703125 C-189.29617187 255.8043457 -189.29617187 255.8043457 -188.18359375 256.92382812 C-186.41562376 258.70342949 -184.65005497 260.48534043 -182.88671875 262.26953125 C-180.15309122 261.00016178 -177.96391453 259.64544459 -175.70703125 257.65234375 C-174.81927002 256.87479736 -174.81927002 256.87479736 -173.91357422 256.08154297 C-173.28596191 255.5248291 -172.65834961 254.96811523 -172.01171875 254.39453125 C-170.66307814 253.21187717 -169.31411243 252.02959373 -167.96484375 250.84765625 C-167.28357422 250.24888672 -166.60230469 249.65011719 -165.90039062 249.03320312 C-162.8729635 246.38163504 -159.8196815 243.76076908 -156.76171875 241.14453125 C-156.19501465 240.65960205 -155.62831055 240.17467285 -155.04443359 239.67504883 C-153.32591024 238.20570401 -151.60632063 236.73761359 -149.88671875 235.26953125 C-148.9755127 234.49005127 -148.9755127 234.49005127 -148.04589844 233.69482422 C-146.24474449 232.15497512 -144.44112269 230.61806983 -142.63671875 229.08203125 C-142.08741699 228.61200684 -141.53811523 228.14198242 -140.97216797 227.65771484 C-136.34482996 223.72939711 -134.06280122 222.83612195 -127.88671875 223.26953125 C-125.78313494 224.81215938 -125.04617716 225.95061442 -123.88671875 228.26953125 C-123.77840323 231.26757839 -123.7317993 234.24301839 -123.72850037 237.24172974 C-123.7210934 238.65311858 -123.7210934 238.65311858 -123.7135368 240.09302032 C-123.69810349 243.26529945 -123.68978544 246.43755826 -123.68139648 249.60986328 C-123.67182254 251.87614116 -123.66181275 254.14241724 -123.65139771 256.40869141 C-123.62429015 262.57778622 -123.60331233 268.74688872 -123.58339572 274.91601038 C-123.56157216 281.3569343 -123.53416576 287.79783434 -123.50733948 294.23873901 C-123.46304794 305.0548198 -123.42222103 315.87090784 -123.3840332 326.68701172 C-123.34468553 337.82894853 -123.30324969 348.97087437 -123.2590332 360.11279297 C-123.25490894 361.15302752 -123.25490894 361.15302752 -123.25070137 362.21427691 C-123.22676744 368.24638959 -123.20267499 374.27850164 -123.17856693 380.31061363 C-123.07491534 406.29689838 -122.98167732 432.28320992 -122.88671875 458.26953125 C-58.20671875 458.26953125 6.47328125 458.26953125 73.11328125 458.26953125 C73.16226562 441.7128125 73.21125 425.15609375 73.26171875 408.09765625 C73.29708711 397.63410924 73.33295505 387.17056793 73.37109375 376.70703125 C73.39109086 371.21224008 73.41098689 365.71744857 73.43066406 360.22265625 C73.43437122 359.18960617 73.43437122 359.18960617 73.43815327 358.1356864 C73.47789231 347.01143707 73.51062576 335.88717756 73.54078107 324.76289859 C73.57187508 313.34972181 73.61062408 301.93659477 73.65607131 290.52346492 C73.68136027 284.11148314 73.70313448 277.69953209 73.71662521 271.28751373 C73.72942378 265.25638612 73.75145437 259.22536375 73.78066444 253.19429398 C73.78975748 250.97710683 73.79543445 248.75990274 73.79749489 246.54269791 C73.80080522 243.52242435 73.81624943 240.50245142 73.83480835 237.48223877 C73.83287362 236.59897203 73.83093888 235.71570529 73.82894552 234.80567288 C73.83641101 233.99652771 73.8438765 233.18738253 73.85156822 232.3537178 C73.85384654 231.65655128 73.85612487 230.95938475 73.85847223 230.24109197 C74.16298355 227.88496438 74.87436849 226.28912708 76.11328125 224.26953125 C79.23217825 222.71008275 81.7750883 222.44743896 85.11328125 223.26953125 C88.78511747 225.5311695 91.89705925 228.4101895 95.11328125 231.26953125 C96.27306241 232.27277548 97.43461785 233.27397115 98.59765625 234.2734375 C101.14695939 236.46792691 103.68802318 238.67139625 106.22265625 240.8828125 C110.00212745 244.17800341 113.80371993 247.44670749 117.61328125 250.70703125 C118.1640332 251.17850586 118.71478516 251.64998047 119.28222656 252.13574219 C120.34298662 253.04358831 121.403856 253.95130671 122.46484375 254.85888672 C125.34926701 257.32722167 128.23119064 259.79847343 131.11328125 262.26953125 C134.76793111 260.73560337 137.05722125 258.54325345 139.81640625 255.7265625 C140.71488281 254.81712891 141.61335938 253.90769531 142.5390625 252.97070312 C143.48085056 252.00818594 144.4222548 251.04529306 145.36328125 250.08203125 C150.86089084 244.48003667 156.33198775 238.95613706 162.29980469 233.85375977 C165.20650253 231.31450797 167.90786837 228.58230429 170.61328125 225.83203125 C171.14953125 225.29126953 171.68578125 224.75050781 172.23828125 224.19335938 C173.53232161 222.88776508 174.82316299 221.57900129 176.11328125 220.26953125 C174.51535174 216.40710735 171.89178612 213.68735323 169.05078125 210.70703125 C165.44279126 206.85383233 161.97735189 202.95597114 158.67578125 198.83203125 C154.83153486 194.05251203 150.7423908 189.57632781 146.55273438 185.10351562 C143.4556266 181.77815848 140.51713749 178.38242318 137.67578125 174.83203125 C133.64816996 169.810309 129.31982269 165.14370364 124.91040039 160.46118164 C120.89542975 156.17420832 117.17363009 151.7199673 113.50390625 147.1328125 C110.06439147 143.01326294 106.40212874 139.11438827 102.71679688 135.21484375 C102.19279297 134.65925781 101.66878906 134.10367188 101.12890625 133.53125 C100.66774414 133.04615967 100.20658203 132.56106934 99.73144531 132.0612793 C98.11328125 130.26953125 98.11328125 130.26953125 96.11157227 127.10229492 C94.38634304 125.03766813 93.46507831 124.34966942 90.81484985 123.74595642 C87.9002389 123.57429262 85.04338633 123.59534782 82.125 123.68359375 C80.53749687 123.69632828 80.53749687 123.69632828 78.91792297 123.70932007 C75.54449788 123.74285179 72.17348126 123.81813559 68.80078125 123.89453125 C66.51110228 123.92463092 64.22138576 123.95200671 61.93164062 123.9765625 C56.32470196 124.04264203 50.71916367 124.14298892 45.11328125 124.26953125 C44.74541504 125.74909302 44.74541504 125.74909302 44.37011719 127.25854492 C42.57605996 134.32380874 40.79858158 141.10650321 37.36328125 147.58203125 C37.01821533 148.24662354 36.67314941 148.91121582 36.31762695 149.59594727 C27.33285818 166.38451293 12.71471883 177.44225311 -5.32421875 183.14453125 C-23.05988757 188.15747521 -42.61757987 185.61906149 -58.88671875 177.26953125 C-76.73980209 166.51561212 -87.92690351 151.56322807 -93.0625 131.34375 C-93.24059204 130.6590564 -93.41868408 129.97436279 -93.60217285 129.2689209 C-94.03468284 127.60357572 -94.46132685 125.93670886 -94.88671875 124.26953125 C-101.50149335 123.93726245 -108.11409065 123.71121994 -114.73535156 123.55541992 C-116.98226282 123.49042529 -119.22863235 123.4019882 -121.47363281 123.28881836 C-137.4971013 122.50188802 -145.88182304 123.49946536 -154.88671875 137.26953125 Z M-77.88671875 124.26953125 C-73.81512306 140.555914 -67.40435106 152.46666946 -52.94921875 161.64453125 C-46.70695827 165.11574087 -40.09905547 168.26953125 -32.88671875 168.26953125 C-32.88671875 153.74953125 -32.88671875 139.22953125 -32.88671875 124.26953125 C-47.73671875 124.26953125 -62.58671875 124.26953125 -77.88671875 124.26953125 Z M-16.88671875 124.26953125 C-16.88671875 138.78953125 -16.88671875 153.30953125 -16.88671875 168.26953125 C-1.58977283 166.35741301 9.12358214 158.58925466 18.92578125 146.95703125 C24.00797418 140.10868617 26.72128451 132.62151168 28.11328125 124.26953125 C13.26328125 124.26953125 -1.58671875 124.26953125 -16.88671875 124.26953125 Z " fill="#fff" transform="translate(280.88671875,21.73046875)"/>
</svg>