<svg xmlns="http://www.w3.org/2000/svg" version="1.1" width="512" height="512">
<path d="M0 0 C7.19530027 2.54200162 12.89671428 5.98669413 18.515625 11.11328125 C19.54623047 12.02400391 19.54623047 12.02400391 20.59765625 12.953125 C27.04988497 18.98589717 32.13184046 26.13784914 35.078125 34.48828125 C36.47842976 37.46996466 37.40441521 38.06382216 40.484375 39.43359375 C42.92812224 40.23578034 45.37907317 41.01627767 47.8359375 41.77734375 C58.49290569 45.64643411 66.95254912 54.15348133 73.015625 63.48828125 C77.63503141 69.92745382 83.32456109 73.20506942 90.15429688 76.84423828 C92.74990654 78.23919062 95.31164074 79.68729993 97.875 81.140625 C138.79858578 104.11605821 186.68116747 123.52841234 234.2890625 124.2890625 C234.98486923 124.30111221 235.68067596 124.31316193 236.39756775 124.32557678 C239.28524335 124.3737853 242.17250101 124.42133741 245.06054688 124.43920898 C259.32556997 124.54409886 270.91212054 126.75710546 281.41796875 136.9609375 C290.13048724 146.22604702 292.09660316 156.22812896 291.85546875 168.58203125 C291.05610815 184.29062799 281.11916922 197.31035415 270.515625 208.11328125 C269.87496094 208.7784375 269.23429687 209.44359375 268.57421875 210.12890625 C255.99632389 222.23912987 238.52345229 230.67890603 222.27392578 236.71679688 C221.56632111 236.98028931 220.85871643 237.24378174 220.12966919 237.51525879 C219.33071732 237.81127991 219.33071732 237.81127991 218.515625 238.11328125 C220.06751526 238.11874969 220.06751526 238.11874969 221.65075684 238.12432861 C231.41997127 238.16133429 241.18887211 238.21916784 250.9578476 238.29718399 C255.97972383 238.33662554 261.00142559 238.36883035 266.0234375 238.38427734 C270.87362909 238.39946576 275.7233409 238.43395019 280.57331848 238.48159027 C282.41994548 238.49638153 284.26664098 238.50432097 286.11332703 238.5051651 C288.70822787 238.50754334 291.30181196 238.53469064 293.89648438 238.56738281 C294.6531842 238.56235245 295.40988403 238.55732208 296.18951416 238.55213928 C302.69232417 238.67818289 307.85519941 240.78193269 312.7578125 245.078125 C313.29664063 245.72910156 313.83546875 246.38007813 314.390625 247.05078125 C314.94492187 247.69917969 315.49921875 248.34757813 316.0703125 249.015625 C318.98293383 253.2428619 319.76829123 256.94317758 319.80615234 262.03344727 C319.8252919 263.78535118 319.8252919 263.78535118 319.84481812 265.57264709 C319.84815659 267.4509446 319.84815659 267.4509446 319.8515625 269.3671875 C319.8582193 270.66019272 319.8648761 271.95319794 319.87173462 273.28538513 C319.88368064 276.01638125 319.88741794 278.74725109 319.88623047 281.47827148 C319.88602679 284.97447519 319.91338997 288.4698705 319.94777489 291.9658823 C319.9753691 295.30799672 319.97419188 298.64996058 319.9765625 301.9921875 C319.99093353 303.24641006 320.00530457 304.50063263 320.02011108 305.79286194 C320.01395782 306.95764572 320.00780457 308.1224295 320.00146484 309.32250977 C320.00431488 310.34667496 320.00716492 311.37084015 320.01010132 312.42604065 C319.36678809 315.92213817 318.29703931 316.93542026 315.515625 319.11328125 C312.5 319.50390625 312.5 319.50390625 309.265625 319.36328125 C308.18796875 319.3271875 307.1103125 319.29109375 306 319.25390625 C305.18015625 319.2075 304.3603125 319.16109375 303.515625 319.11328125 C303.51931217 319.71920105 303.52299934 320.32512085 303.52679825 320.94940186 C303.61526018 335.71480681 303.68138845 350.48019606 303.72287369 365.24580383 C303.74347061 372.38645972 303.77153585 379.52693837 303.81738281 386.66748047 C303.85733903 392.89353877 303.88307868 399.11946866 303.89197898 405.34565163 C303.89717904 408.64032582 303.91146025 411.93454859 303.93854523 415.22912598 C303.96762634 418.91338787 303.97157884 422.5968916 303.96972656 426.28125 C303.98410767 427.36522568 303.99848877 428.44920135 304.01330566 429.56602478 C303.97195574 437.17838683 302.70390177 442.47496939 297.55078125 448.35546875 C296.89980469 448.89429688 296.24882812 449.433125 295.578125 449.98828125 C294.92972656 450.54257812 294.28132813 451.096875 293.61328125 451.66796875 C288.89014597 454.92227052 284.57628693 455.40354077 278.95738506 455.37055016 C278.20099795 455.37405623 277.44461084 455.3775623 276.6653029 455.38117462 C274.12222927 455.39050339 271.57938391 455.38556152 269.03630066 455.38070679 C267.19802406 455.3844423 265.35974905 455.38904343 263.52147657 455.39443743 C258.46309815 455.40669503 253.40478574 455.40640372 248.34639585 455.40404868 C242.89364496 455.40364121 237.44091543 455.41467296 231.98817444 455.42416382 C221.30266047 455.44078985 210.61716856 455.44627409 199.93164273 455.44738857 C191.24761593 455.44833828 182.56359641 455.45244467 173.87957191 455.45878983 C149.26909689 455.4764065 124.65863831 455.48564015 100.04815706 455.48412888 C99.38476725 455.48408899 98.72137743 455.4840491 98.0378849 455.484008 C96.69634879 455.48392712 95.35481268 455.48384353 94.01327657 455.48375721 C73.14090327 455.48253169 52.26859494 455.49754474 31.39624023 455.52490234 C7.94871547 455.55562255 -15.49877366 455.57280954 -38.94632071 455.5709759 C-51.36223691 455.57031137 -63.77807983 455.57583131 -76.19397926 455.597332 C-86.76457101 455.61551956 -97.33505626 455.61991107 -107.90565685 455.60631315 C-113.30004206 455.59977132 -118.69422281 455.59971023 -124.08858871 455.61701965 C-129.02647849 455.63270154 -133.96400087 455.62993672 -138.90188142 455.61245139 C-140.68853974 455.60937072 -142.47522514 455.61305388 -144.26185153 455.62417154 C-162.21769439 455.72850833 -162.21769439 455.72850833 -169.7265625 449.1484375 C-170.26539063 448.49746094 -170.80421875 447.84648437 -171.359375 447.17578125 C-171.91367188 446.52738281 -172.46796875 445.87898438 -173.0390625 445.2109375 C-175.75480386 441.26944261 -176.73493399 437.75296099 -176.72488403 432.99430847 C-176.72763336 431.98615082 -176.73038269 430.97799316 -176.73321533 429.93928528 C-176.72602478 428.84452377 -176.71883423 427.74976227 -176.71142578 426.62182617 C-176.71171783 425.46042114 -176.71200989 424.29901611 -176.71231079 423.10241699 C-176.7109182 419.26611849 -176.69535998 415.43001455 -176.6796875 411.59375 C-176.67595712 408.93288341 -176.67301187 406.27202758 -176.67111206 403.61116028 C-176.66490175 397.32495912 -176.64849704 391.03882771 -176.62841308 384.75265723 C-176.60604009 377.59428345 -176.59505713 370.43590629 -176.58502221 363.27750623 C-176.56413039 348.55606227 -176.52896316 333.83467298 -176.484375 319.11328125 C-177.30421875 319.1596875 -178.1240625 319.20609375 -178.96875 319.25390625 C-180.04640625 319.29 -181.1240625 319.32609375 -182.234375 319.36328125 C-183.30171875 319.4096875 -184.3690625 319.45609375 -185.46875 319.50390625 C-188.484375 319.11328125 -188.484375 319.11328125 -190.84325409 317.26434708 C-192.96520089 314.4830485 -192.99105045 312.84786331 -193.00195312 309.37011719 C-193.01456177 308.21501648 -193.02717041 307.05991577 -193.04016113 305.86981201 C-193.03206421 304.62500061 -193.02396729 303.38018921 -193.015625 302.09765625 C-193.0194519 300.81272278 -193.02327881 299.52778931 -193.02722168 298.20391846 C-193.03311457 295.48356896 -193.02456732 292.76374529 -193.00585938 290.04345703 C-192.98315952 286.57554699 -192.99613491 283.10888148 -193.02014923 279.64101791 C-193.03818928 276.3139679 -193.0255046 272.9872415 -193.015625 269.66015625 C-193.02372192 268.42344177 -193.03181885 267.18672729 -193.04016113 265.91253662 C-192.95222429 257.76854505 -192.03768329 252.16814995 -186.51953125 245.87109375 C-185.86855469 245.33226562 -185.21757812 244.7934375 -184.546875 244.23828125 C-183.89847656 243.68398438 -183.25007812 243.1296875 -182.58203125 242.55859375 C-177.92466672 239.34960888 -173.8138999 238.83746705 -168.21484375 238.69921875 C-167.19333977 238.67016953 -167.19333977 238.67016953 -166.15119934 238.64053345 C-163.99154907 238.58109993 -161.83184443 238.53449925 -159.671875 238.48828125 C-158.20114956 238.45006797 -156.73044571 238.41101431 -155.25976562 238.37109375 C-151.66816711 238.27542942 -148.07640587 238.1912655 -144.484375 238.11328125 C-145.02489502 237.65147461 -145.56541504 237.18966797 -146.12231445 236.71386719 C-147.19292114 235.79009277 -147.19292114 235.79009277 -148.28515625 234.84765625 C-148.99067627 234.24147461 -149.69619629 233.63529297 -150.4230957 233.01074219 C-158.5977788 225.48573484 -164.01371204 214.8701689 -164.6875 203.765625 C-164.81909344 193.3368447 -163.40625535 184.41928317 -159.234375 174.80078125 C-156.45585292 168.11529518 -158.37486186 162.93670456 -160.765625 156.421875 C-168.0194033 133.12305449 -157.26787006 108.23697037 -147.74609375 87.2890625 C-144.72015867 79.6726996 -144.19328648 73.04110645 -144.296875 64.92578125 C-144.29969482 63.9107251 -144.30251465 62.89566895 -144.30541992 61.84985352 C-144.34626688 56.35044755 -144.64150277 51.0080154 -145.296875 45.55078125 C-145.64250648 41.50423418 -145.61302071 40.37057266 -143.734375 36.61328125 C-137.31290189 30.74019841 -128.89114561 28.76980343 -120.52734375 27.64453125 C-117.30563226 27.08207584 -114.43551031 26.15362105 -111.359375 25.05078125 C-101.06825705 21.48230269 -91.05206406 21.07308246 -80.78125 25.19921875 C-68.07953453 31.93969966 -63.89087882 44.35691585 -59.484375 57.11328125 C-58.82415577 58.91517921 -58.14200339 60.70947806 -57.421875 62.48828125 C-57.16277344 63.15601562 -56.90367187 63.82375 -56.63671875 64.51171875 C-54.93414421 66.87800878 -53.25821003 67.32301486 -50.484375 68.11328125 C-47.58785671 68.35299214 -47.58785671 68.35299214 -44.671875 68.23828125 C-43.20814453 68.21121094 -43.20814453 68.21121094 -41.71484375 68.18359375 C-40.97878906 68.16039063 -40.24273437 68.1371875 -39.484375 68.11328125 C-39.7009375 67.43265625 -39.9175 66.75203125 -40.140625 66.05078125 C-44.57480576 50.61326304 -43.62467724 34.85524464 -36.359375 20.42578125 C-32.80468156 14.21070414 -28.5298967 9.15880295 -23.484375 4.11328125 C-23.01773438 3.54351562 -22.55109375 2.97375 -22.0703125 2.38671875 C-16.66979779 -3.54390784 -6.94561582 -1.76755021 0 0 Z M-97.484375 39.11328125 C-97.27941406 39.70496094 -97.07445313 40.29664063 -96.86328125 40.90625 C-96.59386719 41.69644531 -96.32445313 42.48664063 -96.046875 43.30078125 C-95.78003906 44.07808594 -95.51320313 44.85539062 -95.23828125 45.65625 C-93.75338688 50.49562076 -93.36062896 54.99756811 -93.171875 60.05078125 C-92.52839829 71.41747706 -88.98628707 90.61136918 -80.484375 99.11328125 C-62.88929634 100.46560098 -45.69102778 98.70556412 -28.484375 95.11328125 C-28.484375 91.24686765 -28.60141693 90.42308811 -30.484375 87.36328125 C-31.474375 85.75453125 -31.474375 85.75453125 -32.484375 84.11328125 C-33.50015625 84.20867187 -34.5159375 84.3040625 -35.5625 84.40234375 C-57.66471246 86.27294563 -57.66471246 86.27294563 -66.81640625 79.6875 C-72.75450589 74.08315772 -74.69486749 65.79731771 -77.25439453 58.29321289 C-79.98031366 50.43106063 -82.68059015 44.01517368 -90.484375 40.11328125 C-94.21662844 39.31645322 -94.21662844 39.31645322 -97.484375 39.11328125 Z M39.515625 57.11328125 C39.31259766 57.98726562 39.31259766 57.98726562 39.10546875 58.87890625 C34.032755 78.19774426 20.12042356 90.39506839 3.515625 100.11328125 C-15.15702028 110.88103093 -38.77638042 115.30397581 -60.17578125 115.2109375 C-61.26848831 115.21021996 -61.26848831 115.21021996 -62.38327026 115.20948792 C-65.36639725 115.20354199 -68.34708473 115.19382055 -71.3293457 115.11694336 C-80.17450807 114.59695917 -80.17450807 114.59695917 -87.84326172 118.14404297 C-90.45411848 121.82166208 -90.45411848 121.82166208 -91.484375 126.11328125 C-74.88843531 126.27937906 -58.33730964 125.78647895 -41.7532959 125.18615723 C-37.03435976 125.01582015 -32.31526864 124.84993477 -27.59613037 124.68530273 C-25.10180447 124.59806169 -22.60753674 124.50913464 -20.11334229 124.41821289 C-1.44862227 123.75845465 15.30094959 124.66845862 29.953125 137.67578125 C32.33463655 139.93640389 34.61862556 142.22545665 36.83984375 144.64453125 C39.97301789 147.53528462 43.07035403 149.22972665 46.890625 151.05078125 C47.59396973 151.39214111 48.29731445 151.73350098 49.02197266 152.08520508 C81.98114793 167.85646927 118.13512654 173.2770554 154.515625 171.11328125 C156.22888312 169.40002313 155.99028177 167.09491422 156.31445312 164.79199219 C157.92096335 153.75324675 161.42172074 143.84961462 167.234375 134.28515625 C168.68499263 132.24645494 168.68499263 132.24645494 168.515625 130.11328125 C165.60481772 129.07517681 162.68624842 128.06090484 159.765625 127.05078125 C158.940625 126.75623047 158.115625 126.46167969 157.265625 126.15820312 C156.06679688 125.74731445 156.06679688 125.74731445 154.84375 125.328125 C154.1105957 125.071521 153.37744141 124.81491699 152.62207031 124.55053711 C150.11099802 124.02928879 148.86428398 124.07016427 146.515625 125.11328125 C144.88599573 127.05172168 144.88599573 127.05172168 143.52734375 129.515625 C142.98529297 130.40572266 142.44324219 131.29582031 141.88476562 132.21289062 C140.76842291 134.09679999 139.65897311 135.98481184 138.55664062 137.87695312 C133.87359925 145.52352482 133.87359925 145.52352482 129.7734375 146.76953125 C126.13904771 147.15301602 124.50377272 147.24767248 121.515625 145.11328125 C119.953125 141.98828125 119.953125 141.98828125 119.515625 138.11328125 C122.23825943 130.81167073 127.1241091 124.50869275 131.515625 118.11328125 C130.03999275 115.16201675 128.01483148 115.0440421 124.953125 113.98828125 C123.94121094 113.63507813 122.92929687 113.281875 121.88671875 112.91796875 C121.10425781 112.65242188 120.32179688 112.386875 119.515625 112.11328125 C119.12818115 112.73895996 118.7407373 113.36463867 118.34155273 114.00927734 C116.56632679 116.84932217 114.76034842 119.66850003 112.953125 122.48828125 C112.34404297 123.473125 111.73496094 124.45796875 111.10742188 125.47265625 C105.88534129 133.54063261 105.88534129 133.54063261 101.7265625 134.8046875 C98.12391539 135.15092731 96.47689709 135.2284756 93.515625 133.11328125 C91.953125 129.98828125 91.953125 129.98828125 91.515625 126.11328125 C94.30538619 118.40822653 99.78030559 111.75082299 104.515625 105.11328125 C101.65103382 102.77916992 98.95656686 101.42574663 95.515625 100.11328125 C95.12818115 100.73895996 94.7407373 101.36463867 94.34155273 102.00927734 C92.56632679 104.84932217 90.76034842 107.66850003 88.953125 110.48828125 C88.34404297 111.473125 87.73496094 112.45796875 87.10742188 113.47265625 C81.88534129 121.54063261 81.88534129 121.54063261 77.7265625 122.8046875 C74.12391539 123.15092731 72.47689709 123.2284756 69.515625 121.11328125 C67.953125 117.98828125 67.953125 117.98828125 67.515625 114.11328125 C69.74612474 107.95285339 73.70137564 102.78970407 77.5168457 97.50537109 C79.79911296 94.6021922 79.79911296 94.6021922 80.515625 91.11328125 C77.215625 89.46328125 73.915625 87.81328125 70.515625 86.11328125 C69.28289487 87.77731398 68.05464692 89.44466732 66.828125 91.11328125 C66.09335937 92.11230469 65.35859375 93.11132812 64.6015625 94.140625 C62.87253001 96.60465819 61.39776203 99.04343927 59.953125 101.67578125 C58.08393819 104.74074414 57.51324546 105.11438604 54.015625 106.73828125 C50.25763644 107.14092288 48.59583592 107.31343191 45.515625 105.11328125 C43.953125 101.98828125 43.953125 101.98828125 43.515625 98.11328125 C45.59013001 92.08990251 49.62500574 86.77321405 53.265625 81.61328125 C53.77222656 80.88625 54.27882812 80.15921875 54.80078125 79.41015625 C56.03436389 77.6412453 57.27432408 75.87678462 58.515625 74.11328125 C54.86286773 66.25985311 47.26380932 60.61841225 39.515625 57.11328125 Z M-19.01171875 140.38867188 C-20.2277906 140.43256294 -20.2277906 140.43256294 -21.46842957 140.4773407 C-24.11962994 140.57336695 -26.77075058 140.67143233 -29.421875 140.76953125 C-31.27131701 140.83691846 -33.1207637 140.90417725 -34.97021484 140.97131348 C-39.8166368 141.14758462 -44.66299351 141.32559078 -49.50933838 141.50396729 C-54.46321836 141.68599135 -59.41715851 141.86636208 -64.37109375 142.046875 C-74.07558019 142.40073233 -83.77999845 142.75642395 -93.484375 143.11328125 C-92.824375 145.42328125 -92.164375 147.73328125 -91.484375 150.11328125 C-90.80375 150.04109375 -90.123125 149.96890625 -89.421875 149.89453125 C-83.43193211 149.32102608 -77.43774925 148.93947576 -71.421875 148.80078125 C-70.17277344 148.76339844 -68.92367187 148.72601563 -67.63671875 148.6875 C-58.54794043 149.15249681 -50.45452913 154.0160163 -42.859375 158.61328125 C-0.95647583 183.19969179 -0.95647583 183.19969179 45.515625 194.11328125 C43.30965171 188.1937142 40.09298033 182.84463421 36.96826172 177.37744141 C35.90791232 175.51858693 34.85801773 173.65410096 33.80859375 171.7890625 C23.60312395 153.36003254 23.60312395 153.36003254 6.4921875 142.0234375 C-2.02461422 139.69579774 -10.28057589 140.06094297 -19.01171875 140.38867188 Z M-104.54931641 168.29931641 C-107.43063676 168.68332342 -110.31329443 169.03606101 -113.20166016 169.36279297 C-116.72431206 169.76156474 -120.23614804 170.21408568 -123.74708939 170.70511627 C-125.71342403 170.96675007 -127.68665421 171.17478702 -129.65951538 171.38153076 C-136.58018368 172.36496938 -136.58018368 172.36496938 -141.61749268 176.86242676 C-143.16328539 179.9074962 -144.39315522 182.88061819 -145.484375 186.11328125 C-145.938125 187.26828125 -146.391875 188.42328125 -146.859375 189.61328125 C-148.47343443 198.65201403 -148.32811875 207.10196665 -143.484375 215.11328125 C-134.76286938 226.59499964 -121.19153724 232.85375581 -107.484375 236.11328125 C-106.56785156 236.33757812 -105.65132812 236.561875 -104.70703125 236.79296875 C-81.18600234 241.60933652 -56.48550465 235.87320178 -33.359375 231.48828125 C-5.93656271 226.32730098 22.24372516 223.96340817 49.515625 231.11328125 C52.18564467 231.78028353 54.85790424 232.43667343 57.5324707 233.08520508 C59.21672092 233.49706807 60.89809569 233.92105532 62.57495117 234.36206055 C78.57567628 238.39779354 94.68717147 238.37717653 111.078125 238.23828125 C113.16861545 238.22822067 115.25911065 238.21910032 117.34960938 238.2109375 C122.40506796 238.18919249 127.46029205 238.15483631 132.515625 238.11328125 C119.48814313 224.45275039 92.87183131 220.06306024 75.16796875 217.26171875 C41.86895606 211.98253985 9.55141256 202.4608613 -21.0546875 188.23925781 C-23.3134483 187.19249286 -25.58305958 186.17584284 -27.859375 185.16796875 C-39.45550463 179.96104457 -50.41887706 173.65100548 -61.41577148 167.29321289 C-72.92873228 160.72621897 -91.83697829 166.59103359 -104.54931641 168.29931641 Z M250.85839844 196.24633789 C214.77121417 210.19111159 176.62623126 215.08859452 138.515625 220.11328125 C140.93575595 222.55374681 143.35858987 224.8708047 146.015625 227.05078125 C148.43748901 229.04107621 149.60343705 230.26613926 151.203125 233.05078125 C153.30373451 235.37219883 153.30373451 235.37219883 155.9621582 235.17285156 C163.08021127 234.4705541 170.02204988 233.4247793 177.015625 231.92578125 C178.05098389 231.70510986 179.08634277 231.48443848 180.15307617 231.25708008 C205.13499609 225.78145969 242.93364432 216.31025373 258.515625 194.11328125 C255.70902267 194.11328125 253.44288254 195.24321839 250.85839844 196.24633789 Z M-174.484375 258.11328125 C-180.06073452 272.05418004 -176.484375 288.09847374 -176.484375 303.11328125 C-18.084375 303.11328125 140.315625 303.11328125 303.515625 303.11328125 C305.45154635 279.30217024 305.45154635 279.30217024 300.515625 257.11328125 C296.51284232 254.63731886 292.24775198 254.83122351 287.67068577 254.85880566 C286.88330874 254.85559918 286.0959317 254.8523927 285.28469476 254.84908906 C282.63622054 254.84076248 279.98797088 254.84672262 277.3394928 254.85258484 C275.42554479 254.84956537 273.51159799 254.84567692 271.59765333 254.84099227 C266.33018282 254.8306772 261.0627801 254.832903 255.79530394 254.83717287 C250.11764321 254.83963372 244.43999907 254.83063393 238.76234436 254.82313538 C227.63633535 254.81036869 216.51035045 254.80859712 205.38433535 254.81093564 C196.34369374 254.81271669 187.30305947 254.81097375 178.26241875 254.8067112 C176.97706092 254.80611601 175.69170309 254.80552082 174.36739502 254.80490759 C171.75642908 254.80369588 169.14546314 254.80248174 166.53449719 254.80126522 C148.99685652 254.79347493 131.45922032 254.78956105 113.92157841 254.79358196 C113.23561264 254.79373834 112.54964687 254.79389471 111.84289426 254.79405583 C108.36605729 254.79486163 104.88922034 254.7957074 101.41238339 254.79656913 C100.3765957 254.79682576 100.3765957 254.79682576 99.31988302 254.79708758 C97.92347343 254.79743423 96.52706384 254.79778276 95.13065425 254.79813317 C73.39901713 254.80349123 51.66742057 254.79555808 29.93579102 254.77709961 C5.52655221 254.75639116 -18.88265535 254.74568574 -43.29190451 254.7496751 C-56.21858846 254.75159022 -69.14523544 254.74906932 -82.07191277 254.73496056 C-93.07586677 254.72307216 -104.07976106 254.72161327 -115.08371585 254.73375072 C-120.70059682 254.73965718 -126.31736843 254.74069019 -131.93424225 254.72874832 C-137.07305148 254.71794958 -142.21165924 254.72092086 -147.35045881 254.73501001 C-149.21244943 254.73767357 -151.07445555 254.73523878 -152.93643104 254.72727414 C-155.46239748 254.71721671 -157.98765697 254.72554817 -160.51359463 254.73855114 C-161.24081959 254.73124179 -161.96804456 254.72393245 -162.71730664 254.71640161 C-167.35583832 254.76608274 -170.63192682 255.48945502 -174.484375 258.11328125 Z M-160.484375 415.11328125 C-161.67694459 429.84617606 -161.67694459 429.84617606 -157.484375 437.11328125 C-153.54149626 439.51800448 -149.67602416 439.36474848 -145.13919163 439.36775684 C-144.40584255 439.37096332 -143.67249348 439.3741698 -142.91692171 439.37747344 C-140.4522308 439.38579452 -137.98778156 439.37984183 -135.52308655 439.37397766 C-133.74113204 439.37699738 -131.95917883 439.38088596 -130.17722791 439.38557023 C-125.27460621 439.39588205 -120.37205738 439.39366032 -115.46942961 439.38938963 C-110.18441003 439.38692819 -104.89940825 439.3959293 -99.61439514 439.40342712 C-89.25841666 439.41619218 -78.90246408 439.41796558 -68.54647905 439.41562686 C-60.13131408 439.41384563 -51.71615699 439.41558915 -43.30099297 439.4198513 C-42.1044467 439.42044649 -40.90790043 439.42104168 -39.67509518 439.42165491 C-37.24451324 439.42286662 -34.81393129 439.42408076 -32.38334935 439.42529728 C-9.57716357 439.43617969 13.22900743 439.43400696 36.03519405 439.42791244 C56.91125533 439.42274213 77.78726997 439.4340005 98.66332202 439.45301066 C120.0862888 439.47236968 141.50923349 439.48064849 162.93220907 439.4768874 C174.96463243 439.47497248 186.99701606 439.47749122 199.0294323 439.49160194 C209.27215348 439.50349203 219.5148105 439.50494731 229.75753253 439.49281178 C234.98556523 439.48690652 240.21348043 439.48586903 245.44150543 439.49781418 C250.22503867 439.50861694 255.00835553 439.50563681 259.79187841 439.49155249 C261.52466396 439.48889005 263.25746617 439.49132029 264.99023544 439.49928836 C267.34195339 439.50935412 269.69291329 439.50100745 272.04460049 439.48801136 C273.35192526 439.48806638 274.65925004 439.48812139 276.00619072 439.48817807 C279.90229069 439.07197552 282.26720601 438.29971695 285.515625 436.11328125 C288.50600014 429.53487088 288.50600014 429.53487088 287.515625 415.11328125 C139.675625 415.11328125 -8.164375 415.11328125 -160.484375 415.11328125 Z " fill="#000000" transform="translate(192.484375,28.88671875)"/>
</svg>